<?xml version="1.0" encoding="utf-8"?>
<!-- Generator: Adobe Illustrator 22.1.0, SVG Export Plug-In . SVG Version: 6.00 Build 0)  -->
<svg version="1.1" id="Layer_1" xmlns="http://www.w3.org/2000/svg" xmlns:xlink="http://www.w3.org/1999/xlink" x="0px" y="0px"
	 viewBox="0 0 335 233.6" style="enable-background:new 0 0 335 233.6;" xml:space="preserve">
<style type="text/css">
	.st0{fill:#FFFFFF;}
</style>
<g id="XMLID_54_">
	<path id="XMLID_8_" class="st0" d="M10.3,81.9v91.3h315V81.9H10.3z M74.9,162.8l-21.4-51.3l-21.7,51.3h-7.3l29-67.5l28.8,67.5H74.9
		z M122.5,132.7H86.6V127h35.9V132.7z M126.3,104.1H86.5l0-5.7h39.7V104.1z M168.7,162.8c-2.6-4.1-5.2-8.1-7.7-12.2
		c-2.6-4.1-5.2-8.2-7.7-12.3v-5.7c2,0,3.5,0,4.7-0.1c1.2-0.1,2.4-0.3,3.8-0.7c1.1-0.3,2.2-0.9,3.1-1.8c0.9-0.9,1.7-1.9,2.4-3.1
		c0.7-1.2,1.2-2.5,1.6-4.1c0.4-1.5,0.6-3.1,0.6-4.6c0-3-0.6-5.6-1.7-7.6c-1.2-2.1-2.7-3.6-4.7-4.8c-1.2-0.6-2.5-1.1-3.9-1.4
		c-1.5-0.3-3-0.4-4.6-0.4H138v58.8h-6.7V98.3h23c2.1,0,4.1,0.2,6,0.5c1.9,0.3,3.7,0.9,5.4,1.7c3.1,1.5,5.6,3.8,7.5,6.8
		c1.9,3,2.9,6.6,2.9,10.7c0,2.9-0.5,5.6-1.4,8c-0.9,2.4-2.1,4.4-3.5,6.1c-1.4,1.7-3.1,3-4.9,4s-3.7,1.5-5.5,1.7
		c2.7,4.2,5.4,8.4,8.1,12.5c2.6,4.1,5.3,8.3,7.9,12.4H168.7z M188.5,162.8h-6.7V98.3h6.7V162.8z M203.7,141.2
		c1.3,3.3,3.2,6.2,5.5,8.7c2.4,2.5,5.2,4.5,8.4,6c3.3,1.5,6.8,2.2,10.7,2.2c4,0,7.6-0.7,10.7-2.2c3.1-1.5,5.9-3.3,8.4-5.4l3.8,4.5
		c-3.1,2.8-6.5,5-10.4,6.5c-3.8,1.5-8,2.3-12.6,2.3c-4.8,0-9.3-0.9-13.4-2.6c-4.1-1.7-7.6-4.1-10.5-7.1c-2.9-3-5.3-6.5-6.9-10.6
		c-1.7-4-2.5-8.3-2.5-12.8c0-4.5,0.9-8.8,2.6-12.9c1.7-4,4.1-7.6,7.1-10.6c3-3,6.5-5.4,10.6-7.2c4.1-1.8,8.4-2.7,13.2-2.7
		c4.7,0,8.9,0.8,12.8,2.5c3.9,1.7,7.3,3.9,10.4,6.7l-4.1,4.6c-2.5-2.2-5.3-4.1-8.5-5.7c-3.2-1.6-6.7-2.3-10.7-2.3
		c-3.9,0-7.5,0.7-10.8,2.2c-3.3,1.5-6.1,3.5-8.4,6c-2.3,2.5-4.1,5.4-5.4,8.8c-1.3,3.3-1.9,6.8-1.9,10.5
		C201.7,134.4,202.3,137.9,203.7,141.2z M303.8,162.8l-21.4-51.3l-21.7,51.3h-7.3l29-67.5l28.8,67.5H303.8z"/>
	<g id="XMLID_105_">
		<g id="XMLID_17_">
			<path id="XMLID_50_" class="st0" d="M27.2,17.3c3.8,0,7.5,0.7,10.8,2.2c3.4,1.5,6.3,3.5,8.8,6c2.5,2.5,4.5,5.5,6,8.9
				c1.5,3.4,2.2,7,2.2,10.8c0,3.8-0.7,7.4-2.2,10.8c-1.5,3.4-3.5,6.3-6,8.8c-2.5,2.5-5.5,4.5-8.8,6c-3.4,1.5-7,2.2-10.8,2.2H10.3
				V17.3H27.2z M51.4,45.2c0-3.3-0.6-6.5-1.9-9.4c-1.3-2.9-3-5.5-5.2-7.7c-2.2-2.2-4.8-3.9-7.7-5.2c-2.9-1.3-6.1-1.9-9.4-1.9H14
				v48.3h13.2c3.3,0,6.4-0.6,9.4-1.9c2.9-1.3,5.5-3,7.7-5.2c2.2-2.2,3.9-4.7,5.2-7.6C50.7,51.7,51.4,48.5,51.4,45.2z"/>
			<path id="XMLID_48_" class="st0" d="M162.5,17.3V22h-21.6v51h-4.7V22h-21.7v-4.7H162.5z"/>
			<path id="XMLID_46_" class="st0" d="M210.6,65.9c-2.7,2.3-5.6,4-8.8,5.3c-3.1,1.2-6.5,1.9-9.9,1.9c-3.9,0-7.5-0.7-10.8-2.2
				c-3.4-1.5-6.3-3.5-8.8-6c-2.5-2.5-4.5-5.5-5.9-8.9c-1.4-3.4-2.2-7-2.2-10.8c0-3.9,0.7-7.5,2.2-10.8c1.4-3.4,3.4-6.3,5.9-8.8
				c2.5-2.5,5.4-4.5,8.8-6c3.4-1.5,7-2.2,10.8-2.2c3,0,5.9,0.5,8.8,1.5c2.9,1,5.7,2.5,8.4,4.4l-2.9,2.2c-2.1-1.5-4.4-2.6-6.8-3.4
				c-2.4-0.8-4.9-1.2-7.5-1.2c-3.4,0-6.5,0.6-9.4,1.9c-2.9,1.3-5.5,3-7.7,5.2c-2.2,2.2-3.9,4.7-5.1,7.7c-1.2,2.9-1.9,6.1-1.9,9.5
				c0,3.3,0.6,6.4,1.9,9.4c1.2,2.9,3,5.5,5.1,7.7c2.2,2.2,4.7,3.9,7.7,5.2c2.9,1.3,6.1,1.9,9.4,1.9c3,0,5.8-0.6,8.6-1.7
				c2.8-1.1,5.4-2.7,7.8-4.8L210.6,65.9z"/>
			<path id="XMLID_44_" class="st0" d="M325.3,17.5V73h-4.6V29.9l-7.6,9.7L301.6,54l-19.4-24.2V73h-4.4V17.3l23.7,29.6L325.3,17.5z"
				/>
			<g id="XMLID_31_">
				<path id="XMLID_32_" class="st0" d="M267.7,54.3c1-2.9,1.6-6,1.6-9.2c0-3.2-0.5-6.3-1.6-9.2c0-0.1-0.1-0.2-0.1-0.3
					c-3.9-10.7-14.2-18.4-26.2-18.4S219,25,215.2,35.7c0,0.1-0.1,0.2-0.1,0.3c-1,2.9-1.6,6-1.6,9.2c0,3.2,0.5,6.3,1.6,9.2
					c0,0.1,0.1,0.2,0.1,0.3C219,65.3,229.3,73,241.4,73s22.3-7.7,26.2-18.4C267.6,54.5,267.7,54.4,267.7,54.3L267.7,54.3z M241.4,69
					c-1.1,0-2.8-1.9-4.2-6.2c-0.7-2.1-1.2-4.4-1.6-7h11.7c-0.4,2.6-1,5-1.6,7C244.2,67.1,242.4,69,241.4,69L241.4,69z M235.1,51.8
					c-0.2-2.1-0.3-4.3-0.3-6.6c0-2.3,0.1-4.5,0.3-6.6h12.7c0.2,2.1,0.3,4.3,0.3,6.6c0,2.3-0.1,4.5-0.3,6.6H235.1z M217.5,45.2
					c0-2.3,0.3-4.5,0.9-6.6h12.6c-0.2,2.2-0.3,4.4-0.3,6.6c0,2.2,0.1,4.4,0.3,6.6h-12.6C217.9,49.7,217.5,47.5,217.5,45.2
					L217.5,45.2z M241.4,21.3c1.1,0,2.8,1.9,4.2,6.2c0.7,2.1,1.2,4.4,1.6,7h-11.7c0.4-2.6,1-5,1.6-7
					C238.6,23.2,240.3,21.3,241.4,21.3L241.4,21.3z M251.7,38.5h12.6c0.6,2.1,0.9,4.3,0.9,6.6c0,2.3-0.3,4.5-0.9,6.6h-12.6
					c0.2-2.2,0.3-4.4,0.3-6.6C252,42.9,251.9,40.7,251.7,38.5L251.7,38.5z M262.7,34.5h-11.5c-0.7-4.9-1.9-9.3-3.6-12.4
					C254.2,23.9,259.7,28.5,262.7,34.5L262.7,34.5z M235.1,22.1c-1.7,3.1-2.9,7.5-3.6,12.4H220C223,28.5,228.5,23.9,235.1,22.1
					L235.1,22.1z M220,55.8h11.5c0.7,4.9,1.9,9.3,3.6,12.4C228.5,66.4,223,61.8,220,55.8L220,55.8z M247.6,68.2
					c1.7-3.1,2.9-7.5,3.6-12.4h11.5C259.7,61.8,254.2,66.4,247.6,68.2L247.6,68.2z M247.6,68.2"/>
			</g>
			<g id="XMLID_18_">
				<path id="XMLID_19_" class="st0" d="M114.4,54.3c1-2.9,1.6-6,1.6-9.2c0-3.2-0.5-6.3-1.6-9.2c0-0.1-0.1-0.2-0.1-0.3
					c-3.9-10.7-14.2-18.4-26.2-18.4S65.7,25,61.9,35.7c0,0.1-0.1,0.2-0.1,0.3c-1,2.9-1.6,6-1.6,9.2c0,3.2,0.5,6.3,1.6,9.2
					c0,0.1,0.1,0.2,0.1,0.3C65.7,65.3,76,73,88.1,73s22.3-7.7,26.2-18.4C114.3,54.5,114.4,54.4,114.4,54.3L114.4,54.3z M88.1,69
					c-1.1,0-2.8-1.9-4.2-6.2c-0.7-2.1-1.2-4.4-1.6-7h11.7c-0.4,2.6-1,5-1.6,7C90.9,67.1,89.1,69,88.1,69L88.1,69z M81.8,51.8
					c-0.2-2.1-0.3-4.3-0.3-6.6c0-2.3,0.1-4.5,0.3-6.6h12.7c0.2,2.1,0.3,4.3,0.3,6.6c0,2.3-0.1,4.5-0.3,6.6H81.8z M64.2,45.2
					c0-2.3,0.3-4.5,0.9-6.6h12.6c-0.2,2.2-0.3,4.4-0.3,6.6c0,2.2,0.1,4.4,0.3,6.6H65.2C64.6,49.7,64.2,47.5,64.2,45.2L64.2,45.2z
					 M88.1,21.3c1.1,0,2.8,1.9,4.2,6.2c0.7,2.1,1.2,4.4,1.6,7H82.2c0.4-2.6,1-5,1.6-7C85.3,23.2,87,21.3,88.1,21.3L88.1,21.3z
					 M98.4,38.5H111c0.6,2.1,0.9,4.3,0.9,6.6c0,2.3-0.3,4.5-0.9,6.6H98.4c0.2-2.2,0.3-4.4,0.3-6.6C98.7,42.9,98.6,40.7,98.4,38.5
					L98.4,38.5z M109.4,34.5H98c-0.7-4.9-1.9-9.3-3.6-12.4C100.9,23.9,106.4,28.5,109.4,34.5L109.4,34.5z M81.8,22.1
					c-1.7,3.1-2.9,7.5-3.6,12.4H66.7C69.7,28.5,75.2,23.9,81.8,22.1L81.8,22.1z M66.7,55.8h11.5c0.7,4.9,1.9,9.3,3.6,12.4
					C75.2,66.4,69.7,61.8,66.7,55.8L66.7,55.8z M94.3,68.2c1.7-3.1,2.9-7.5,3.6-12.4h11.5C106.4,61.8,100.9,66.4,94.3,68.2
					L94.3,68.2z M94.3,68.2"/>
			</g>
		</g>
		<g id="XMLID_3_">
			<path id="XMLID_6_" class="st0" d="M312.5,12.2V6.2h-2.1V5h5.7v1.2H314v5.9H312.5z"/>
			<path id="XMLID_4_" class="st0" d="M317,12.2V5h2.2l1.3,4.9l1.3-4.9h2.2v7.2h-1.3V6.5l-1.4,5.6h-1.4l-1.4-5.6v5.6H317z"/>
		</g>
	</g>
	<g>
		<path class="st0" d="M18,220.7c-0.4,0-0.7-0.2-1-0.5c-0.3-0.3-0.4-0.7-0.4-1c-0.1-0.8-0.1-1.7-0.1-2.6c0-2.5,0.3-6.1,0.8-11
			c0.5-4.9,0.8-8.5,0.8-10.9c0-0.4-0.2-0.6-0.5-0.6c-0.1,0-0.7,0.2-1.9,0.6c-0.3,0.1-0.9,0.3-1.8,0.7c-0.9,0.4-1.5,0.6-2,0.6
			c-0.5,0-1-0.2-1.3-0.6c-0.4-0.4-0.5-0.8-0.5-1.4c0-1,0.5-1.7,1.4-2.1c3.5-1.7,7.3-2.6,11.4-2.7h4.2c1.2,0,2.3,0,3.3,0
			c0.1,0,0.2,0.1,0.4,0.4c0.2,0.3,0.3,0.5,0.3,0.5c0.1,0.2,0.1,0.4,0.1,0.6c0,1.1-0.8,2-2.3,2.5c-0.2,0-2,0.2-5.3,0.4
			c-1.2,5.6-1.9,13.7-2.2,24.3c0,0.5-0.4,1.1-1.3,1.6C19.2,220.4,18.5,220.7,18,220.7z"/>
		<path class="st0" d="M32.8,205c0-0.5,0-1.3-0.1-2.5c-0.1-1.1-0.1-2-0.1-2.5c0-1.2,0.2-2.3,0.7-3.2c0.3-0.8,1.1-1.2,2.3-1.2
			c0.4,0,0.8,0.1,1.2,0.2c0.4,0.3,0.6,0.9,0.6,2c-0.4,3.4-0.6,5.6-0.6,6.6c0,1.6,0.2,3.1,0.6,4.5c2-3.4,4.1-5.1,6.3-5.1
			c0.6,0,1.2,0.1,1.9,0.4c1.4,6,2.2,10.4,2.2,13.1c0,0.8,0,1.6-0.1,2.3c0,0.4-0.3,0.7-0.8,1c-0.5,0.3-1,0.4-1.6,0.4
			c-0.5,0-0.9-0.1-1.2-0.4c-0.9-1.1-1.3-2.8-1.3-5.1c0-0.2,0-0.5,0-1s0-0.8,0-1c0-2-0.3-3.6-0.9-4.8c-2,2-3.8,4.7-5.4,8
			c-0.2,0.3-0.6,0.6-1.2,0.8c-0.6,0.2-1.1,0.3-1.5,0.2c-0.3-0.1-0.7-0.1-1-0.2c-0.4-0.1-0.6-0.3-0.6-0.5c0-1.3,0.1-3.3,0.3-6
			C32.7,208.4,32.8,206.4,32.8,205z"/>
		<path class="st0" d="M49.7,208.3c0-2.6,0.3-4.5,0.9-5.6c0.5-0.9,1.3-1.4,2.4-1.4c0.5,0,1,0.1,1.4,0.3c0.9,0.4,1.4,1,1.4,1.7
			c0,0.3-0.1,0.5-0.3,0.7c-0.6,0.8-0.9,1.9-0.9,3.2c-0.1,1.6-0.2,2.6-0.4,3.1c-0.2,0.5-0.2,1-0.2,1.6c0,0.4,0.1,1.1,0.2,1.9
			c0.1,0.9,0.2,1.5,0.2,2c0,0.5,0,0.9-0.1,1.3c0,0.4-0.2,0.6-0.5,0.6c-0.7,0.2-1.4,0.3-1.9,0.3c-1.1,0-1.7-0.4-2-1.2
			c-0.3-1-0.4-2.1-0.4-3.4c0-0.6,0-1.4,0.1-2.6C49.7,209.7,49.7,208.8,49.7,208.3z M51,197.1c-0.2-0.3-0.3-0.6-0.3-1.1
			c0-1.2,0.3-2.1,1-2.5c0.7-0.4,1.4-0.6,2.2-0.6c0.7,0,1.2,0.2,1.7,0.5c0.5,0.4,0.8,0.9,0.8,1.5c0,0.6-0.2,1.1-0.5,1.7
			c-0.4,0.6-0.7,1-1.1,1.3c-0.4,0.2-0.8,0.3-1.3,0.3C52.5,198.4,51.6,198,51,197.1z"/>
		<path class="st0" d="M59,210c0-0.5,0-1.4-0.1-2.5s-0.1-2-0.1-2.6c0-1.2,0.1-2.3,0.4-3.1c0.3-0.7,0.9-1,1.9-1c1.1,0,1.8,0.4,2,1.3
			c0.1,0.2,0.1,0.4,0.1,0.7c0,0.3-0.1,0.8-0.3,1.5c-0.2,0.7-0.3,1.2-0.3,1.6c0.3,0.3,0.4,0.5,0.4,0.6c1.1-1.8,1.9-3,2.2-3.3
			c0.9-1.1,2-1.6,3.1-1.6c0.4,0,0.9,0.1,1.3,0.2c1.1,1.9,1.9,4.3,2.3,7.1c0.1,0.8,0.2,3.4,0.4,7.6c0.4,1.4,0.1,2.3-0.6,2.5
			c-0.9,0.3-1.6,0.4-2.1,0.4c-0.8,0-1.2-0.3-1.3-0.8c-0.2-1.2-0.3-3.3-0.4-6.1c-0.1-2.6-0.3-4.5-0.6-6c-0.9,1-1.8,2.6-2.6,4.7
			c-1,2.6-1.7,4.3-2.2,5s-1.1,1.1-1.9,1.1c-0.9,0-1.5-0.5-1.7-1.5c-0.2-0.7-0.2-1.7-0.2-2.9C58.9,210.8,59,209.8,59,210z"/>
		<path class="st0" d="M75.5,201.3c0.1-0.9,0-2.2-0.2-3.8c-0.2-1.8-0.3-3.1-0.3-3.8c0-1.2,0.2-2.2,0.5-3.1c0.4-1,1.4-1.5,2.9-1.5
			c0.4,0,0.7,0,1,0.1c0.4,0.4,0.6,0.8,0.6,1.1c0,1.3-0.1,3.7-0.3,7.2c-0.2,3-0.2,5.4-0.1,7.2c0.1,0.1,0.5,0.2,1.1,0.2
			c1-0.7,1.9-1.4,2.8-2.2c1.1-0.8,2.1-1.1,3.1-1.1c0.7,0,1.4,0.2,2.1,0.6c0.4,0.2,0.6,0.5,0.6,0.8c0,0.7-0.4,1.2-1.3,1.6
			c-0.3,0.2-1.1,0.7-2.6,1.5c-1.1,0.6-2,1.2-2.6,1.8c2.4,1.8,5.6,4.6,9.8,8.4c0.2,0.3,0.3,0.5,0.3,0.8c0,0.6-0.3,1-0.9,1.4
			c-0.5,0.6-1.1,0.9-1.9,0.9c-0.7,0-1.1-0.2-1.5-0.6c-0.7-0.8-3.3-3-7.8-6.6c-0.2-0.1-0.3-0.2-0.4-0.2c-0.2,0-0.3,0.2-0.2,0.6
			c-0.1,0.7,0,1.7,0.2,3.1c0.2,1.4,0.3,2.4,0.2,3.1c-0.1,1.1-0.9,1.7-2.4,1.7c-0.8,0-1.2-0.2-1.4-0.6c-1.2-2.9-1.9-6.6-1.9-11.1
			C75.2,207.4,75.3,204.8,75.5,201.3z"/>
		<path class="st0" d="M106.1,198.7c-0.1-0.2,0-1.2,0-3c0-1.2-0.3-2.1-0.9-2.5c-0.1-0.1-0.4-0.2-0.9-0.2c-0.5,0-0.8-0.2-1-0.5
			s-0.3-0.6-0.3-1c0-0.6,0.2-1.1,0.7-1.6c0.5-0.5,0.9-0.7,1.3-0.7c3.2,0,4.7,0,4.6,0c1.7,0.1,3.2,0.4,4.2,1c0.3,0.2,1.5,0.6,3.7,1.4
			c1.5,0.5,2.6,1.2,3.3,2.2c0.3,0.6,0.4,1.1,0.2,1.5l-3,2.6c-1.2,1.1-2.3,1.9-3.3,2.5c-0.1,0-0.3,0.1-0.5,0.2
			c-0.2,0.1-0.3,0.3-0.3,0.4c0,0.1,0.1,0.2,0.2,0.2c4.3,0.8,6.8,2.5,7.5,5.2c0.1,0.5,0.2,1,0.2,1.5c0,1.9-1.2,4.1-3.5,6.5
			c-4.1,4.1-7.6,6.2-10.7,6.3c-0.4,0-0.8-0.1-1.2-0.3c-0.5-0.3-0.7-0.6-0.7-1c0-0.4,0.3-1,0.9-1.6c0.6-0.6,0.9-1,0.9-1.1
			c0.1-0.7,0.1-1.4,0.1-2.1c0-1.5-0.4-4.5-1.2-9.2c0-0.2-0.2-0.7-0.4-1.4c-0.3-0.6-0.4-1.1-0.4-1.5c0-0.4,0.1-0.8,0.4-1.2
			C106.4,200.9,106.4,200.1,106.1,198.7z M110.2,195.6c-0.1,0.3,0,0.7,0.1,1.2s0.2,1,0.1,1.3c1,0.1,2-0.1,2.8-0.7
			c0.9-0.6,1.4-1.2,1.6-2c0-0.1,0-0.2,0-0.2c0-0.3-0.3-0.5-1-0.8c-1.1-0.4-1.7-0.6-1.8-0.6c-0.2-0.1-0.4-0.2-0.5-0.2
			C110.9,193.5,110.5,194.2,110.2,195.6z M111.5,210c0.1,0.8,0.2,1.6,0.3,2.5c0.1,1,0.3,1.7,0.6,2.4c2-1.6,3-2.5,3.2-2.7
			c1.1-1.1,1.7-2.3,1.7-3.4c0-0.3,0-0.5-0.1-0.8c-0.1-0.8-0.7-1.5-1.7-2.1c-1-0.7-1.9-1-2.9-1c-0.7,0-1.2,0.2-1.5,0.6
			c-0.2,0.3-0.2,0.6-0.2,1c0,0.4,0.1,1,0.3,1.8C111.3,209.1,111.4,209.7,111.5,210z"/>
		<path class="st0" d="M123.8,208.3c0-2.6,0.3-4.5,0.9-5.6c0.5-0.9,1.3-1.4,2.4-1.4c0.5,0,1,0.1,1.4,0.3c0.9,0.4,1.4,1,1.4,1.7
			c0,0.3-0.1,0.5-0.3,0.7c-0.6,0.8-0.9,1.9-0.9,3.2c-0.1,1.6-0.2,2.6-0.4,3.1c-0.2,0.5-0.2,1-0.2,1.6c0,0.4,0.1,1.1,0.2,1.9
			c0.1,0.9,0.2,1.5,0.2,2c0,0.5,0,0.9-0.1,1.3c0,0.4-0.2,0.6-0.5,0.6c-0.7,0.2-1.4,0.3-1.9,0.3c-1.1,0-1.7-0.4-2-1.2
			c-0.3-1-0.4-2.1-0.4-3.4c0-0.6,0-1.4,0.1-2.6C123.8,209.7,123.8,208.8,123.8,208.3z M125.1,197.1c-0.2-0.3-0.3-0.6-0.3-1.1
			c0-1.2,0.3-2.1,1-2.5c0.7-0.4,1.4-0.6,2.2-0.6c0.7,0,1.2,0.2,1.7,0.5c0.5,0.4,0.8,0.9,0.8,1.5c0,0.6-0.2,1.1-0.5,1.7
			c-0.4,0.6-0.7,1-1.1,1.3c-0.4,0.2-0.8,0.3-1.3,0.3C126.6,198.4,125.8,198,125.1,197.1z"/>
		<path class="st0" d="M134.2,199.8c2.6-2.2,5.3-3.3,8.1-3.3c1.3,0,2.5,0.3,3.6,0.9c0.8,0.4,1.1,0.9,1,1.5c-1.3,2.7-1.9,5.8-1.9,9.5
			c0,1.5,0.2,3.8,0.5,6.9c0.3,3,0.5,5.3,0.5,6.9c0,2.5-0.8,4.2-2.3,5.1c-1.1,0.6-2.2,0.9-3.5,0.9c-1.7,0-3.2-0.5-4.6-1.4
			c-1.4-0.9-2.4-2.1-2.9-3.6c-0.1-0.2-0.1-0.4-0.1-0.5c0-0.5,0.2-0.9,0.6-1.3s0.9-0.5,1.4-0.5c0.5,0,0.8,0.1,1,0.4
			c0.1,0.1,0.6,0.7,1.5,1.8c0.6,0.8,1.2,1.3,1.7,1.6c0.7,0.5,1.5,0.6,2.3,0.5c0.2-0.1,0.5-0.5,0.9-1.3c0.2-1.2,0.3-2.4,0.3-3.7
			c0-1.9-0.4-4.9-1.1-9c0,0,0-0.2,0.1-0.5c0.1-0.3,0.1-0.5,0.1-0.6c0-0.4-0.2-0.4-0.5-0.2c-1.4,0.9-2.7,1.3-3.9,1.3
			c-0.6,0-1.2-0.1-1.7-0.3c-1-0.4-1.9-1.4-2.8-3c-0.4-1-0.6-2-0.6-3C131.9,202.7,132.7,201.1,134.2,199.8z M137.3,201.2
			c-1.2,1-1.6,2.1-1.5,3.5c0.3,2.3,0.9,3.4,1.9,3.4c0.8,0.1,1.5-0.4,2-1.4c0.5-0.9,0.9-1.8,1.4-2.8c0.3-0.6,0.5-1.4,0.5-2.3
			c0-0.6-0.1-1.1-0.3-1.5c-0.2-0.3-0.5-0.5-1-0.5C139.5,199.7,138.5,200.2,137.3,201.2z"/>
		<path class="st0" d="M153.8,213.6c0.7,0.5,1,1.5,1,3c0,1.7-0.5,2.8-1.5,3.4c-0.6,0.3-1.1,0.4-1.6,0.4c-0.9,0-1.6-0.4-2.2-1.1
			c-0.6-0.8-1-1.6-1.1-2.6c-0.2-1.2,0.1-2.1,0.8-2.8c0.6-0.6,1.4-0.9,2.4-0.9C152.5,213,153.2,213.2,153.8,213.6z"/>
		<path class="st0" d="M169.9,198.9c0.2-0.5,0.5-2.1,1.1-4.7c0.4-1.8,0.9-3.2,1.6-4.2c0.4-0.6,1.1-0.8,2.1-0.8c0.6,0,1,0.2,1.2,0.6
			c1.1,2.3,2.1,5.2,3,8.7c0.7,3,1.4,6.1,2.2,9.1c0,0.2,0.2,0.5,0.7,0.7c0.4,0.2,0.7,0.5,0.9,0.7c0.1,0.2,0.2,0.5,0.2,0.7
			s-0.1,0.5-0.2,0.6c-0.3,0.6-0.4,1.3-0.4,1.9c0,0.8,0.3,2,0.9,3.6c0.6,1.5,0.8,2.7,0.6,3.6c-0.1,0.9-0.9,1.4-2.2,1.4
			c-0.7,0-1.3-0.2-1.6-0.7c-0.5-0.6-0.9-2-1.2-4c-0.3-1.7-0.8-2.8-1.7-3.3c-0.7-0.4-1.6-0.6-2.5-0.6c-1.5,0-2.9,0.4-3.9,1.3
			c-0.5,0.4-1,1.8-1.6,4.2c-0.5,2.1-1.3,3.2-2.4,3.2c-0.5,0-1.1-0.2-1.7-0.5c-0.1-0.5-0.1-0.9-0.1-1.4c0-1,0.2-2.3,0.7-3.8
			c0.7-2.1,1.1-3.4,1.2-3.8C167.5,206.8,168.6,202.8,169.9,198.9z M172.6,203.3c-0.1,0.5-0.4,1.3-0.8,2.4c-0.4,1-0.6,1.7-0.6,2.1
			c0,0.4,0.1,0.7,0.4,0.8c0.6,0.3,1.4,0.5,2.3,0.5c1.3,0,2.1-0.4,2.4-1.1c0.2-0.6,0.2-1.1,0.2-1.8c0-1.1-0.3-2.3-0.8-3.7
			c-0.1-0.3-0.6-1.5-1.6-3.6C173.4,199.8,172.9,201.3,172.6,203.3z"/>
		<path class="st0" d="M184.4,209.7c0-1.8,0.7-3.4,2.1-4.7c0.9-0.8,2.5-1.8,4.7-2.9c2.2-1.1,3.8-2,4.6-2.6c0.4-0.4,0.7-1.1,0.9-2.4
			c0.2-1.5,0.3-2.5,0.5-2.9c0.7-1.2,1.6-1.8,2.6-1.8c0.2,0,0.5,0,0.7,0.1c1.1,0.5,1.6,1.1,1.4,1.9c-1.5,4-2.2,8.6-2.2,13.5
			c0,3.4,0.3,7.1,1,11.1c0,0.2-0.2,0.5-0.7,0.8c-0.5,0.3-0.9,0.4-1.2,0.4c-0.8,0.1-1.5-0.4-2-1.5c-0.6-1-1-1.6-1.3-1.6
			c-0.3,0-0.7,0-1.3,0.1c-0.6,0-1,0.1-1.3,0.1c-1.2,0-2.2-0.3-3.1-0.8c-1.9-1.2-3.1-2.1-3.6-2.7C185,212.7,184.4,211.3,184.4,209.7z
			 M189.4,209c0.2,1,0.7,1.9,1.5,2.8c0.9,0.8,1.8,1.2,2.9,1.2c0.4,0,0.8-0.1,1.2-0.2c0-0.5,0-1.1,0-1.7c0-0.7,0.1-1.8,0.3-3.3
			c0.2-1.5,0.3-2.6,0.3-3.3c-1.6,0-3,0.4-4.2,1.1C189.8,206.5,189.1,207.6,189.4,209z"/>
		<path class="st0" d="M205.8,208.3c-1.4-2.6-2.5-4.9-3.3-7c-0.1-0.3-0.1-0.5-0.1-0.7c0-0.6,0.3-1.1,1-1.5c0.6-0.4,1.2-0.5,2-0.5
			c1,0,1.6,0.3,2,0.8c0.8,0.9,1.6,2.6,2.4,4.9c0.8,2.4,1.6,4.1,2.3,5c1.1-1.8,2.1-4.1,3-6.8c0.8-2.5,1.5-4.9,2.3-7.4
			c0.3-1.1,1.1-1.6,2.4-1.6c1.2,0,2.4,0.4,3.4,1.3c0.1,0.2,0.1,0.4,0,0.8c-0.1,0.5-0.2,0.8-0.2,0.9c-0.1,0.2-0.3,0.4-0.6,0.7
			s-0.5,0.6-0.6,0.8c-1.8,6.5-4.1,12.5-7,18c-0.5,0.9-1.3,1.3-2.5,1.3c-0.6,0-1-0.2-1.3-0.5C209.2,215.4,207.5,212.6,205.8,208.3z"
			/>
		<path class="st0" d="M224.2,206.8c0-2.2,0.6-4.1,2-5.6c1.3-1.5,3.1-2.2,5.2-2.2c2.2,0,4.2,0.8,5.9,2.5c1.7,1.7,2.6,3.7,2.5,5.9
			c-0.3,0.9-1.5,2-3.7,3.3c-2.7,1.6-4.2,2.6-4.5,2.9c-0.6,0.3-0.8,0.5-0.8,0.8c0,0.5,0.4,1,1.1,1.4c0.7,0.4,1.4,0.6,1.9,0.6
			c1.1,0,2.6-0.5,4.7-1.6c0.6,0.5,0.9,1.1,0.9,1.9c0,0.6-0.2,1.2-0.6,1.7c-0.4,0.5-0.9,0.8-1.5,0.9c-2.1,0.3-3.4,0.5-4,0.5
			c-1.1,0-2.1-0.2-3-0.6C226.4,217.6,224.4,213.4,224.2,206.8z M229.6,209.4c2.9-0.1,4.7-1.2,5.3-3.1c0.1-0.3,0.2-0.5,0.2-0.8
			c0-0.7-0.4-1.2-1.1-1.7c-0.7-0.4-1.5-0.6-2.4-0.6c-0.7,0-1.2,0.1-1.7,0.4c-1,0.5-1.4,1.5-1.4,3.1
			C228.5,208.4,228.8,209.3,229.6,209.4z"/>
		<path class="st0" d="M242,205.5c-0.1-0.5-0.3-1.4-0.8-2.6c-0.4-1.1-0.6-2-0.6-2.6c0-0.8,0.3-1.5,0.9-2c0.6-0.5,1.2-0.8,1.9-0.8
			c0.9,0,1.6,0.4,2.2,1.2c0.6,0.8,0.9,1.7,0.9,2.8c0,0.2,0,0.5,0,0.7c0.8-0.1,1.9-0.8,3.1-2.1c1.1-1.2,2.1-1.8,3-1.8
			c0.3,0,0.7,0,1,0.1c1.4,0.6,2.1,1.1,2.1,1.6c0,0.3-0.1,0.5-0.3,0.8c-0.6,0.9-1.8,2-3.4,3.4c-1.7,1.4-2.8,2.6-3.5,3.6
			c-0.2,0.4-0.4,1-0.4,1.8c0,0.8-0.2,1.4-0.3,1.7c-0.2,0.3-0.3,0.7-0.3,1.1c0,0.7,0.3,1.4,0.8,2.1c0.4,0.5,0.6,1.2,0.6,2
			c0,1.2-0.4,2.2-1.1,2.9c-0.5,0.8-1.2,1.2-2.2,1.2c-0.8,0-1.5-0.3-2-0.9c-0.6-0.4-0.8-1.1-0.7-2.2
			C242.9,214.6,242.6,210.6,242,205.5z"/>
		<path class="st0" d="M263.9,198.7c0.2-1.1,0.4-2.8,0.7-5c0.1-1.3,1-2,2.6-2c1,0,1.8,0.3,2.7,0.8c0.4,0.4,0.5,1,0.2,1.7
			c-1.3,2.8-1.9,6.1-1.9,10c3.1-0.3,4.6-0.4,4.5-0.4c1.7,0,2.6,0.5,2.6,1.4c0,0.2,0,0.4-0.1,0.6c-0.3,1.1-1.4,1.7-3.2,1.9
			c-0.6,0.1-2.2,0.1-4.6,0.1c-0.1,0.4-0.1,0.9-0.1,1.6c0,1.6,0.2,4.8,0.6,9.8c0.4,4.6,0.5,7.4,0.4,8.3c-0.1,1.1-0.6,1.7-1.7,1.7
			c-1,0-1.7-0.5-2.1-1.6c-0.3-0.8-0.6-4.1-0.9-9.9c-0.3-5.5-0.7-8.8-1.2-9.8c-1.3,1-2.7,1.5-4,1.5c-0.6,0-1.1-0.2-1.6-0.5
			c-0.6-0.4-0.8-0.8-0.8-1.4c0-0.7,0.4-1.3,1.3-1.9c0.4-0.2,1.5-0.5,3.1-0.9c1.3-0.3,2.1-0.7,2.6-1.2c0.4-0.5,0.7-1.3,0.8-2.4
			C263.8,200.5,263.9,199.6,263.9,198.7z"/>
		<path class="st0" d="M277.3,208.3c0-2.6,0.3-4.5,0.9-5.6c0.5-0.9,1.3-1.4,2.4-1.4c0.5,0,1,0.1,1.4,0.3c0.9,0.4,1.4,1,1.4,1.7
			c0,0.3-0.1,0.5-0.3,0.7c-0.6,0.8-0.9,1.9-0.9,3.2c-0.1,1.6-0.2,2.6-0.4,3.1c-0.2,0.5-0.2,1-0.2,1.6c0,0.4,0.1,1.1,0.2,1.9
			c0.1,0.9,0.2,1.5,0.2,2c0,0.5,0,0.9-0.1,1.3c0,0.4-0.2,0.6-0.5,0.6c-0.7,0.2-1.4,0.3-1.9,0.3c-1.1,0-1.7-0.4-2-1.2
			c-0.3-1-0.4-2.1-0.4-3.4c0-0.6,0-1.4,0.1-2.6C277.3,209.7,277.3,208.8,277.3,208.3z M278.6,197.1c-0.2-0.3-0.3-0.6-0.3-1.1
			c0-1.2,0.3-2.1,1-2.5c0.7-0.4,1.4-0.6,2.2-0.6c0.7,0,1.2,0.2,1.7,0.5c0.5,0.4,0.8,0.9,0.8,1.5c0,0.6-0.2,1.1-0.5,1.7
			c-0.4,0.6-0.7,1-1.1,1.3c-0.4,0.2-0.8,0.3-1.3,0.3C280.1,198.4,279.2,198,278.6,197.1z"/>
		<path class="st0" d="M294.7,198.7c1.2,0.5,2.5,1,3.7,1.5c1.3,0.7,2.3,1.5,2.8,2.5c0.1,0.1,0.1,0.3,0.1,0.5c0,0.9-0.3,1.6-0.9,2
			c-0.3,0.2-0.6,0.2-1,0.2c-0.6,0-1.6-0.5-3.2-1.4c-1.5-0.9-2.8-1.4-3.6-1.4c-0.7,0-1.3,0.2-1.9,0.5c-0.3,0.2-0.4,0.5-0.4,0.8
			c0,0.5,0.3,1,0.8,1.6c0.5,0.6,1,1,1.5,1.1c3.4,1.2,6,2.7,7.8,4.3c0.6,0.6,0.9,1.3,0.9,2.3c0,1.2-0.4,2.3-1.1,3.5
			c-0.7,1.2-1.9,2.2-3.4,3c-1.6,0.8-3.2,1.2-4.9,1.2c-3,0-5-1.2-6.2-3.7c-0.1-0.2-0.1-0.4-0.1-0.7c0-0.6,0.3-1.1,0.8-1.6
			s1.1-0.7,1.7-0.8c0.5-0.1,0.9,0.2,1.2,0.9c0.4,0.8,0.8,1.2,1,1.3c0.6,0.3,1.3,0.4,2,0.4c1.1,0,2.2-0.3,3-0.9
			c0.9-0.6,1.3-1.4,1.3-2.4c0-0.8-0.8-1.5-2.3-2.2c-1.7-0.7-3.3-1.4-5-2.1c-1.8-0.9-3-2.1-3.7-3.5c-0.2-0.4-0.3-0.9-0.3-1.3
			c0-1.5,0.9-2.9,2.8-4.3c1.8-1.3,3.5-2,5.2-2C293.9,198.4,294.3,198.5,294.7,198.7z"/>
		<path class="st0" d="M302.4,206.8c0-2.2,0.6-4.1,2-5.6c1.3-1.5,3.1-2.2,5.2-2.2c2.2,0,4.2,0.8,5.9,2.5c1.7,1.7,2.6,3.7,2.5,5.9
			c-0.3,0.9-1.5,2-3.7,3.3c-2.7,1.6-4.2,2.6-4.5,2.9c-0.6,0.3-0.8,0.5-0.8,0.8c0,0.5,0.4,1,1.1,1.4c0.7,0.4,1.4,0.6,1.9,0.6
			c1.1,0,2.6-0.5,4.7-1.6c0.6,0.5,0.9,1.1,0.9,1.9c0,0.6-0.2,1.2-0.6,1.7c-0.4,0.5-0.9,0.8-1.5,0.9c-2.1,0.3-3.4,0.5-4,0.5
			c-1.1,0-2.1-0.2-3-0.6C304.6,217.6,302.6,213.4,302.4,206.8z M307.8,209.4c2.9-0.1,4.7-1.2,5.3-3.1c0.1-0.3,0.2-0.5,0.2-0.8
			c0-0.7-0.4-1.2-1.1-1.7c-0.7-0.4-1.5-0.6-2.4-0.6c-0.7,0-1.2,0.1-1.7,0.4c-1,0.5-1.4,1.5-1.4,3.1
			C306.7,208.4,307.1,209.3,307.8,209.4z"/>
		<path class="st0" d="M324.8,213.6c0.7,0.5,1,1.5,1,3c0,1.7-0.5,2.8-1.5,3.4c-0.6,0.3-1.1,0.4-1.6,0.4c-0.9,0-1.6-0.4-2.2-1.1
			c-0.6-0.8-1-1.6-1.1-2.6c-0.2-1.2,0.1-2.1,0.8-2.8c0.6-0.6,1.4-0.9,2.4-0.9C323.6,213,324.3,213.2,324.8,213.6z"/>
	</g>
</g>
</svg>
