<svg id="Layer_1" data-name="Layer 1" xmlns="http://www.w3.org/2000/svg" viewBox="0 0 572.32 572.49"><defs><style>.cls-1{fill:#8cc340;}</style></defs><title>qr_code_sadc_app</title><path class="cls-1" d="M368.3,482.28v-45.2H323.57V413.73h43.54V392.26l-20.59-2.58c-.73-6.33-1.51-12.94-2.57-22H299.3l.52.56V323.49l22.82-2.66V299.24l-.53.53,23.28-.57V344l22,2.61c.46,7.26.85,13.39,1.29,20.42h43.84V346.23L390.5,343.7V322.11h21.92V300.82H391v21.83l-21.94-1.2c-.94-8-1.72-14.61-2.55-21.71h-21.7V274.17l23.42-2.87V135.73l-.53.56h22.67V271.83h22.86V183H481v21H437.82v44.93h20.5c.55-6.56,1.07-12.72,1.71-20.26h21.75v44.48l.56-.53-21.88,1.13v48.84h21.88l-.53-.53v46.16H528l-.56-.53v21.72l-21.5,2.47v43.7h20.38c.79-6.55,1.59-13.18,2.55-21.11l20.72-1.71c.58-6.87,1.09-13,1.77-21.17l20.83-.91V481H551.41c-.54-6.89-1-13.07-1.6-20.51H506v20.59l20.3,1.73v44.56H504.64l.52.56c-.37-7.32-.74-14.64-1.1-21.81H481.81v21.81l.52-.56H436.19l.52.56V483.2h-22c-.9,7.73-1.68,14.32-2.51,21.38H390.55l.53.53V481.76H367.74Zm23.3-24.47h66.76v-66H391.6ZM458.19,367V346.38H437.86V367Z"/><path class="cls-1" d="M250.42,368.21V300.29l-21.93-1.35c-.66-7.94-1.3-15.77-2.05-24.81l-21.65-2.35v-22l-.56.52h44.62v-68l-21.55-1.61V114.34H204v67H181.41l.56.52V91.82l21.64-2.55c.41-7.28.81-14.61,1.22-21.94l-.55.54h21.6c.82,7,1.59,13.6,2.49,21.34l21.39,2.25V158l23.43,1.12-.52-.56,1,23.34h48.93l-.53-.53c.36,7.31.73,14.62,1.1,22l20.61,2.29v21l-21.71,1.36v71.72l.53-.53H300.52c-.83-9.84-1.48-17.68-2.14-25.6H272.67v94.58l.53-.53H249.86Z"/><path class="cls-1" d="M0,157.46V.12H157.35V157.46ZM23.08,22.86V134.72H134.61V22.86Z"/><path class="cls-1" d="M414.44,157.43V.16H571.79V157.43ZM437.77,22.79V134.51H549.54V22.79Z"/><path class="cls-1" d="M158.13,415V572.17H.11V415ZM135.2,437.42h-112V549.11h112Z"/><path class="cls-1" d="M228.22,458.15,206,459.48c-.85-7.27-1.61-13.86-2.52-21.69l-21.56-2.59V390.82H136.76c-.43-8.7-.77-15.55-1.08-22.41l-.54.6,115.28-.8-.56-.52v22l-22.61,2.43c.36,7.65.66,14.13.94,20.08h45V367.69l-.53.53h27.15l-.52-.56v90.22H273.77c-.51-6.49-1-13.12-1.61-20.56H227.71c0,7.75,0,14.58,0,21.43Z"/><path class="cls-1" d="M273.19,159.11V68.31h25c.77,6.64,1.54,13.21,2.47,21.21l22,1.14-.52-.56c.37,7.33.74,14.65,1.1,21.82h22.24V90.1l-.52.56h44.95c.34,7,.65,13.51,1,21.15l-22.05,2.44c-.37,7.42-.73,14.73-1.1,22l.53-.56L344.63,137v44.41H322.11l.53.53V137.18h-22c-.91,7.72-1.69,14.3-2.52,21.37H272.67Z"/><path class="cls-1" d="M436.19,527.36q0,11.67-.07,23.34l.54-.54H391.92c-.73,8-1.33,14.57-2,22.12h-44c-.45-7-.84-13.13-1.3-20.41l-21.13-2.5V528.62l21-1.79V482.28h23.84l-.55-.52v23.35h23.34l-.53-.53c.4,7.33.79,14.66,1.26,23.34h44.9Z"/><path class="cls-1" d="M43.88,346.2H89.32c.73-9,1.23-15.12,1.84-22.58H180.4V345H137c-.7,9.23-1.27,16.62-1.85,24,0,0,.53-.6.51-.58-6.8,0-13.58,0-21.55,0-.57,7.31-1.09,13.92-1.68,21.37H91.35c-.56-6.88-1.06-13-1.75-21.45H45.47c-.43-9.12-.75-15.92-1-22.75Z"/><path class="cls-1" d="M322.63,90.66V45.87l21.51-2.09v-21l-20.43-1.49V.23H367.1c.53,6.53,1,12.65,1.64,20.14l20.82,2.68V44l-20.65,1.51c-.55,7.07-1,13.22-1.6,20.6l-21.24,2.63c-.37,7.25-.76,14.61-1.14,22l.52-.56H322.11Z"/><path class="cls-1" d="M22.29,345.35v-21.5L.36,321.3V273.48c7.56-.35,14.35-.66,21.16-1l-.6-.53c.57,8.17,1.15,16.34,1.86,26.55H66.29v23l-20.6,1.52c-.63,8.26-1.2,15.68-1.79,23.12l.52-.58q-11.36-.37-22.67-.79Z"/><path class="cls-1" d="M204.83,67.33H182.9v-45h43.53C227,14,227.5,7.34,228,0h20.73V44.09H205.41c-.44,9.17-.78,16.47-1.13,23.78Z"/><path class="cls-1" d="M44.58,204.76H67.83l-.54-.54v44.66L89.36,251v21c-23.23,0-45.81,0-68.42,0l.58.51c.33-6.8.67-13.57,1.07-21.41L45.12,249v-44.8Z"/><path class="cls-1" d="M528,299.76V274.14h44.12v70.7H550.26l.53.56V299.24H527.44Z"/><path class="cls-1" d="M481.78,273.15h22c.66,8.36,1.29,16.24,2,25.49L528,299.76l-.56-.52V345.4l.53-.53H506.06c-1-8.58-1.77-15.18-2.65-22.81h-21.6l.53.53v-50Z"/><path class="cls-1" d="M45.12,204.22H23.43c-.9,7.67-1.67,14.31-2.56,22H.06V183H44.58v21.73Z"/><path class="cls-1" d="M182,250.29l0-46.1-.56.52h44.72V226.2l-21.9,2.57v21.57l.56-.52-23.33-.07Z"/><path class="cls-1" d="M550.31,204.76h21.86V249h-43.6V228.73l21.08-2.61c.4-7.21.8-14.55,1.2-21.9Z"/><path class="cls-1" d="M157.8,272v26.55H114v-26q22.1,0,44.36,0Z"/><path class="cls-1" d="M550.85,204.22h-45c-.33-7.11-.64-13.62-1-21.4h45.5v21.94Z"/><path class="cls-1" d="M528.47,572.3V551.72H572.2V572.3Z"/><path class="cls-1" d="M182,204.19H137.39V181.88H182l-.56-.52v23.35Z"/><path class="cls-1" d="M203.43,526.74v45.61h-20.3V528.26c7.25-.35,14.06-.68,20.9-1Z"/><path class="cls-1" d="M226.4,528.72h22.76v43.77H226.91c0-14.71,0-29.53,0-44.37Z"/><path class="cls-1" d="M273.74,572V551.44h25c.29,6.1.6,12.66,1,20.56Z"/><path class="cls-1" d="M89.51,205.51h22.82V226.4l-20.84,1c-.52-8.05-1-15.26-1.44-22.5Z"/><path class="cls-1" d="M21.75,344.81v21.83H.37V345.35H22.29Z"/><path class="cls-1" d="M250.33,481.71H228.18c0-8.07,0-15.79,0-23.54l-.52.58c6.8.33,13.57.68,22.11,1.12v22.38Z"/><path class="cls-1" d="M249.79,482.25h21.84v21.38H250.34V481.71Z"/><path class="cls-1" d="M550.26,344.84v22.85H527.41l.56.53V344.87l-.53.53h23.35Z"/><path class="cls-1" d="M159.78,249H137v-20.9l20.83-1c.53,8,1,15.27,1.46,22.5Z"/><path class="cls-1" d="M204.29,505.15h22.15c0,8.07,0,15.8,0,23.55l.52-.58c-7.84-.43-15.65-.88-23.49-1.35,0,0,.61.53.58.51q.38-11.35.8-22.67Z"/><path class="cls-1" d="M204.83,504.61H183V483.24h21.29v21.91Z"/><path class="cls-1" d="M181.46,249.75V272c-8.14,0-15.88,0-23.64,0l.58.51c.43-7.83.88-15.64,1.36-23.48l-.52.58q11.4.31,22.75.68Z"/><path class="cls-1" d="M504.64,527.36V549.2H482.33V527.36l-.52.56h23.35Z"/><path class="cls-1" d="M67.83,204.77V182.49l21.72-1c0,8.56,0,16.28,0,24l.52-.58q-11.4-.32-22.76-.67Z"/><path class="cls-1" d="M436.12,550.7H458v21.37H436.66V550.16Z"/><path class="cls-1" d="M551.2,526.81V506h21.12v20.78Z"/><path class="cls-1" d="M435.08,435.67H414.67V414.44h20.41Z"/><path class="cls-1" d="M45.53,112.27V46h66.62v66.28Z"/><path class="cls-1" d="M460.17,112.11v-66h66.3v66Z"/><path class="cls-1" d="M45.73,526.41V460.13h66.09v66.28Z"/></svg>