<?xml version="1.0" encoding="utf-8"?>
<!-- Generator: Adobe Illustrator 25.0.0, SVG Export Plug-In . SVG Version: 6.00 Build 0)  -->
<svg version="1.1" id="Layer_1" xmlns="http://www.w3.org/2000/svg" xmlns:xlink="http://www.w3.org/1999/xlink" x="0px" y="0px"
	 viewBox="0 0 484 73" style="enable-background:new 0 0 484 73;" xml:space="preserve">
<style type="text/css">
	.st0{enable-background:new    ;}
	.st1{fill:#414042;}
	.st2{fill:#7EB141;}
	.st3{fill:#252A60;}
	.st4{fill:none;}
	.st5{fill:#FFFFFF;}
</style>
<g id="XMLID_20_">
	<g class="st0">
		<path class="st1" d="M16.8,62.4v-4.9l-4.7-6.6h2l2.4,3.5c0.4,0.7,0.9,1.3,1.2,2c0.4-0.6,0.8-1.3,1.3-2l2.4-3.4h1.9l-4.9,6.6v4.9
			H16.8z"/>
		<path class="st1" d="M22.4,58.3c0-1.5,0.5-2.7,1.4-3.4c0.8-0.6,1.7-0.9,2.8-0.9c1.2,0,2.2,0.4,3,1.1c0.8,0.8,1.2,1.8,1.2,3.1
			c0,1.1-0.2,1.9-0.5,2.5c-0.3,0.6-0.8,1.1-1.5,1.4s-1.4,0.5-2.1,0.5c-1.2,0-2.2-0.4-3-1.1S22.4,59.7,22.4,58.3z M24,58.3
			c0,1.1,0.2,1.9,0.7,2.4c0.5,0.5,1.1,0.8,1.9,0.8c0.7,0,1.4-0.3,1.9-0.8s0.7-1.4,0.7-2.4c0-1-0.2-1.8-0.7-2.3
			c-0.5-0.5-1.1-0.8-1.9-0.8c-0.8,0-1.4,0.3-1.9,0.8C24.2,56.4,24,57.2,24,58.3z"/>
		<path class="st1" d="M38.4,62.4v-1.2c-0.7,0.9-1.6,1.4-2.8,1.4c-0.5,0-1-0.1-1.5-0.3c-0.5-0.2-0.8-0.4-1-0.7
			c-0.2-0.3-0.4-0.6-0.5-1c-0.1-0.3-0.1-0.7-0.1-1.3v-5.2H34v4.6c0,0.7,0,1.2,0.1,1.5c0.1,0.4,0.3,0.7,0.6,0.9
			c0.3,0.2,0.7,0.3,1.1,0.3c0.5,0,0.9-0.1,1.3-0.3s0.7-0.5,0.8-0.9s0.2-0.9,0.2-1.6v-4.5h1.5v8.4H38.4z"/>
		<path class="st1" d="M42,62.4v-8.4h1.4v1.3c0.3-0.6,0.7-1,1-1.2c0.3-0.2,0.6-0.3,1-0.3c0.5,0,1,0.2,1.5,0.5l-0.5,1.3
			c-0.4-0.2-0.7-0.3-1.1-0.3c-0.3,0-0.6,0.1-0.9,0.3c-0.3,0.2-0.4,0.4-0.6,0.8c-0.2,0.5-0.3,1.1-0.3,1.7v4.4H42z"/>
		<path class="st1" d="M58.5,57.9v-1.4l5.2,0v4.3c-0.8,0.6-1.6,1-2.5,1.3s-1.7,0.5-2.6,0.5c-1.2,0-2.3-0.2-3.3-0.7
			c-1-0.5-1.7-1.2-2.2-2.1c-0.5-0.9-0.8-1.9-0.8-3.1c0-1.1,0.2-2.2,0.7-3.1c0.5-1,1.2-1.7,2.2-2.2c0.9-0.5,2-0.7,3.2-0.7
			c0.9,0,1.7,0.1,2.4,0.4c0.7,0.3,1.3,0.6,1.7,1.1c0.4,0.5,0.7,1.1,0.9,1.9L62,54.5c-0.2-0.6-0.4-1-0.7-1.4
			c-0.3-0.3-0.7-0.6-1.2-0.8c-0.5-0.2-1.1-0.3-1.7-0.3c-0.7,0-1.4,0.1-1.9,0.3c-0.5,0.2-1,0.5-1.3,0.8c-0.3,0.3-0.6,0.7-0.8,1.1
			C54.1,55,54,55.8,54,56.6c0,1,0.2,1.9,0.6,2.6s0.9,1.2,1.6,1.5s1.5,0.5,2.3,0.5c0.7,0,1.4-0.1,2.1-0.4c0.7-0.3,1.2-0.5,1.5-0.8
			v-2.1H58.5z"/>
		<path class="st1" d="M71.7,62.4v-1.2c-0.7,0.9-1.6,1.4-2.8,1.4c-0.5,0-1-0.1-1.5-0.3c-0.5-0.2-0.8-0.4-1-0.7
			c-0.2-0.3-0.4-0.6-0.5-1c-0.1-0.3-0.1-0.7-0.1-1.3v-5.2h1.5v4.6c0,0.7,0,1.2,0.1,1.5c0.1,0.4,0.3,0.7,0.6,0.9
			c0.3,0.2,0.7,0.3,1.1,0.3c0.5,0,0.9-0.1,1.3-0.3s0.7-0.5,0.8-0.9s0.2-0.9,0.2-1.6v-4.5H73v8.4H71.7z"/>
		<path class="st1" d="M75.4,52.5v-1.6h1.5v1.6H75.4z M75.4,62.4v-8.4h1.5v8.4H75.4z"/>
		<path class="st1" d="M85,62.4v-1.1c-0.6,0.8-1.4,1.2-2.5,1.2c-0.7,0-1.4-0.2-2-0.6c-0.6-0.4-1.1-0.9-1.4-1.5
			c-0.3-0.7-0.5-1.4-0.5-2.3c0-0.8,0.1-1.6,0.4-2.3c0.3-0.7,0.7-1.2,1.3-1.6c0.6-0.4,1.3-0.5,2-0.5c0.5,0,1,0.1,1.4,0.3
			s0.8,0.5,1,0.8v-4.1h1.5v11.5H85z M80.2,58.3c0,1.1,0.2,1.9,0.7,2.4c0.5,0.5,1,0.8,1.7,0.8c0.7,0,1.2-0.3,1.7-0.8
			c0.5-0.5,0.7-1.3,0.7-2.3c0-1.1-0.2-2-0.7-2.5c-0.5-0.5-1-0.8-1.7-0.8c-0.7,0-1.2,0.3-1.7,0.8C80.4,56.4,80.2,57.2,80.2,58.3z"/>
		<path class="st1" d="M94.8,59.8l1.6,0.2c-0.2,0.9-0.7,1.5-1.4,2c-0.7,0.5-1.5,0.7-2.5,0.7c-1.3,0-2.3-0.4-3.1-1.1
			c-0.8-0.8-1.1-1.8-1.1-3.2c0-1.4,0.4-2.5,1.2-3.3c0.8-0.8,1.8-1.2,3-1.2c1.2,0,2.2,0.4,2.9,1.1s1.1,1.8,1.1,3.2c0,0.1,0,0.2,0,0.4
			h-6.6c0.1,0.9,0.3,1.6,0.8,2.1c0.5,0.5,1.1,0.7,1.9,0.7c0.6,0,1-0.1,1.4-0.4C94.3,60.8,94.6,60.3,94.8,59.8z M89.9,57.5h5
			c-0.1-0.7-0.3-1.2-0.6-1.6c-0.5-0.5-1.1-0.8-1.9-0.8c-0.7,0-1.3,0.2-1.7,0.7C90.2,56.1,89.9,56.7,89.9,57.5z"/>
		<path class="st1" d="M106,62.4V52.3h-4v-1.4h9.7v1.4h-4.1v10.2H106z"/>
		<path class="st1" d="M110.7,58.3c0-1.5,0.5-2.7,1.4-3.4c0.8-0.6,1.7-0.9,2.8-0.9c1.2,0,2.2,0.4,3,1.1c0.8,0.8,1.2,1.8,1.2,3.1
			c0,1.1-0.2,1.9-0.5,2.5c-0.3,0.6-0.8,1.1-1.5,1.4s-1.4,0.5-2.1,0.5c-1.2,0-2.2-0.4-3-1.1S110.7,59.7,110.7,58.3z M112.3,58.3
			c0,1.1,0.2,1.9,0.7,2.4c0.5,0.5,1.1,0.8,1.9,0.8c0.7,0,1.4-0.3,1.9-0.8s0.7-1.4,0.7-2.4c0-1-0.2-1.8-0.7-2.3
			c-0.5-0.5-1.1-0.8-1.9-0.8c-0.8,0-1.4,0.3-1.9,0.8C112.5,56.4,112.3,57.2,112.3,58.3z"/>
		<path class="st1" d="M131.5,57.9v-1.4l5.2,0v4.3c-0.8,0.6-1.6,1-2.5,1.3s-1.7,0.5-2.6,0.5c-1.2,0-2.3-0.2-3.3-0.7
			c-1-0.5-1.7-1.2-2.2-2.1c-0.5-0.9-0.8-1.9-0.8-3.1c0-1.1,0.2-2.2,0.7-3.1c0.5-1,1.2-1.7,2.2-2.2c0.9-0.5,2-0.7,3.2-0.7
			c0.9,0,1.7,0.1,2.4,0.4c0.7,0.3,1.3,0.6,1.7,1.1c0.4,0.5,0.7,1.1,0.9,1.9l-1.5,0.4c-0.2-0.6-0.4-1-0.7-1.4
			c-0.3-0.3-0.7-0.6-1.2-0.8c-0.5-0.2-1.1-0.3-1.7-0.3c-0.7,0-1.4,0.1-1.9,0.3c-0.5,0.2-1,0.5-1.3,0.8c-0.3,0.3-0.6,0.7-0.8,1.1
			c-0.3,0.7-0.5,1.5-0.5,2.3c0,1,0.2,1.9,0.6,2.6s0.9,1.2,1.6,1.5s1.5,0.5,2.3,0.5c0.7,0,1.4-0.1,2.1-0.4c0.7-0.3,1.2-0.5,1.5-0.8
			v-2.1H131.5z"/>
		<path class="st1" d="M138.4,58.3c0-1.5,0.5-2.7,1.4-3.4c0.8-0.6,1.7-0.9,2.8-0.9c1.2,0,2.2,0.4,3,1.1c0.8,0.8,1.2,1.8,1.2,3.1
			c0,1.1-0.2,1.9-0.5,2.5c-0.3,0.6-0.8,1.1-1.5,1.4s-1.4,0.5-2.1,0.5c-1.2,0-2.2-0.4-3-1.1S138.4,59.7,138.4,58.3z M139.9,58.3
			c0,1.1,0.2,1.9,0.7,2.4c0.5,0.5,1.1,0.8,1.9,0.8c0.7,0,1.4-0.3,1.9-0.8s0.7-1.4,0.7-2.4c0-1-0.2-1.8-0.7-2.3
			c-0.5-0.5-1.1-0.8-1.9-0.8c-0.8,0-1.4,0.3-1.9,0.8C140.2,56.4,139.9,57.2,139.9,58.3z"/>
		<path class="st1" d="M150.9,62.4l-3.4-8.4h1.6l1.9,5c0.2,0.5,0.4,1.1,0.6,1.7c0.1-0.4,0.3-1,0.6-1.6l2-5.1h1.5l-3.4,8.4H150.9z"/>
		<path class="st1" d="M163.1,59.8l1.6,0.2c-0.2,0.9-0.7,1.5-1.4,2c-0.7,0.5-1.5,0.7-2.5,0.7c-1.3,0-2.3-0.4-3.1-1.1
			c-0.8-0.8-1.1-1.8-1.1-3.2c0-1.4,0.4-2.5,1.2-3.3c0.8-0.8,1.8-1.2,3-1.2c1.2,0,2.2,0.4,2.9,1.1s1.1,1.8,1.1,3.2c0,0.1,0,0.2,0,0.4
			h-6.6c0.1,0.9,0.3,1.6,0.8,2.1c0.5,0.5,1.1,0.7,1.9,0.7c0.6,0,1-0.1,1.4-0.4C162.6,60.8,162.9,60.3,163.1,59.8z M158.2,57.5h5
			c-0.1-0.7-0.3-1.2-0.6-1.6c-0.5-0.5-1.1-0.8-1.9-0.8c-0.7,0-1.3,0.2-1.7,0.7C158.5,56.1,158.2,56.7,158.2,57.5z"/>
		<path class="st1" d="M166.5,62.4v-8.4h1.4v1.3c0.3-0.6,0.7-1,1-1.2c0.3-0.2,0.6-0.3,1-0.3c0.5,0,1,0.2,1.5,0.5l-0.5,1.3
			c-0.4-0.2-0.7-0.3-1.1-0.3c-0.3,0-0.6,0.1-0.9,0.3c-0.3,0.2-0.4,0.4-0.6,0.8c-0.2,0.5-0.3,1.1-0.3,1.7v4.4H166.5z"/>
		<path class="st1" d="M172.3,62.4v-8.4h1.4v1.2c0.7-0.9,1.6-1.4,2.8-1.4c0.5,0,1,0.1,1.5,0.3c0.4,0.2,0.8,0.4,1,0.7s0.4,0.6,0.5,1
			c0.1,0.3,0.1,0.7,0.1,1.4v5.1H178v-5.1c0-0.6-0.1-1-0.2-1.3c-0.1-0.3-0.3-0.5-0.6-0.7c-0.3-0.2-0.6-0.3-1.1-0.3
			c-0.6,0-1.2,0.2-1.7,0.6s-0.7,1.1-0.7,2.2v4.6H172.3z"/>
		<path class="st1" d="M181.8,62.4v-8.4h1.3v1.2c0.3-0.4,0.6-0.7,1.1-1c0.5-0.2,1-0.4,1.6-0.4c0.7,0,1.2,0.1,1.6,0.4
			c0.4,0.3,0.7,0.6,0.9,1.1c0.7-1,1.6-1.5,2.7-1.5c0.9,0,1.6,0.2,2,0.7s0.7,1.2,0.7,2.1v5.7h-1.5v-5.3c0-0.6,0-1-0.1-1.2
			c-0.1-0.2-0.3-0.4-0.5-0.6c-0.3-0.2-0.6-0.2-0.9-0.2c-0.6,0-1.1,0.2-1.6,0.6s-0.6,1-0.6,1.9v4.9h-1.5V57c0-0.6-0.1-1.1-0.4-1.4
			c-0.2-0.3-0.6-0.5-1.2-0.5c-0.4,0-0.8,0.1-1.2,0.3s-0.6,0.5-0.8,0.9c-0.2,0.4-0.2,1-0.2,1.7v4.3H181.8z"/>
		<path class="st1" d="M202.1,59.8l1.6,0.2c-0.2,0.9-0.7,1.5-1.4,2c-0.7,0.5-1.5,0.7-2.5,0.7c-1.3,0-2.3-0.4-3.1-1.1
			c-0.8-0.8-1.1-1.8-1.1-3.2c0-1.4,0.4-2.5,1.2-3.3c0.8-0.8,1.8-1.2,3-1.2c1.2,0,2.2,0.4,2.9,1.1s1.1,1.8,1.1,3.2c0,0.1,0,0.2,0,0.4
			h-6.6c0.1,0.9,0.3,1.6,0.8,2.1c0.5,0.5,1.1,0.7,1.9,0.7c0.6,0,1-0.1,1.4-0.4C201.6,60.8,201.9,60.3,202.1,59.8z M197.2,57.5h5
			c-0.1-0.7-0.3-1.2-0.6-1.6c-0.5-0.5-1.1-0.8-1.9-0.8c-0.7,0-1.3,0.2-1.7,0.7C197.5,56.1,197.3,56.7,197.2,57.5z"/>
		<path class="st1" d="M205.6,62.4v-8.4h1.4v1.2c0.7-0.9,1.6-1.4,2.8-1.4c0.5,0,1,0.1,1.5,0.3c0.4,0.2,0.8,0.4,1,0.7s0.4,0.6,0.5,1
			c0.1,0.3,0.1,0.7,0.1,1.4v5.1h-1.5v-5.1c0-0.6-0.1-1-0.2-1.3c-0.1-0.3-0.3-0.5-0.6-0.7c-0.3-0.2-0.6-0.3-1.1-0.3
			c-0.6,0-1.2,0.2-1.7,0.6s-0.7,1.1-0.7,2.2v4.6H205.6z"/>
		<path class="st1" d="M218.4,61.2l0.2,1.3c-0.4,0.1-0.8,0.1-1.1,0.1c-0.5,0-1-0.1-1.3-0.2s-0.5-0.4-0.6-0.6
			c-0.1-0.3-0.2-0.8-0.2-1.7v-4.8h-1.1v-1.1h1.1V52l1.5-0.8v2.9h1.5v1.1h-1.5v4.9c0,0.4,0,0.7,0.1,0.8s0.1,0.2,0.3,0.3
			c0.1,0.1,0.3,0.1,0.5,0.1C217.9,61.2,218.1,61.2,218.4,61.2z"/>
		<path class="st1" d="M225.1,62.4V50.9h1.6v11.5H225.1z"/>
		<path class="st1" d="M229.4,62.4v-8.4h1.4v1.2c0.7-0.9,1.6-1.4,2.8-1.4c0.5,0,1,0.1,1.5,0.3c0.4,0.2,0.8,0.4,1,0.7s0.4,0.6,0.5,1
			c0.1,0.3,0.1,0.7,0.1,1.4v5.1h-1.5v-5.1c0-0.6-0.1-1-0.2-1.3c-0.1-0.3-0.3-0.5-0.6-0.7c-0.3-0.2-0.6-0.3-1.1-0.3
			c-0.6,0-1.2,0.2-1.7,0.6s-0.7,1.1-0.7,2.2v4.6H229.4z"/>
		<path class="st1" d="M243.3,58.7l1.5-0.1c0.1,0.6,0.2,1,0.5,1.4c0.3,0.4,0.7,0.7,1.2,0.9c0.6,0.2,1.2,0.3,1.9,0.3
			c0.6,0,1.2-0.1,1.6-0.3c0.5-0.2,0.8-0.4,1.1-0.7s0.3-0.6,0.3-1c0-0.4-0.1-0.7-0.3-0.9c-0.2-0.3-0.6-0.5-1.1-0.7
			c-0.3-0.1-1.1-0.3-2.2-0.6c-1.1-0.3-1.9-0.5-2.4-0.7c-0.6-0.3-1-0.6-1.3-1.1c-0.3-0.4-0.4-0.9-0.4-1.4c0-0.6,0.2-1.1,0.5-1.6
			c0.4-0.5,0.9-0.9,1.5-1.2c0.7-0.3,1.4-0.4,2.3-0.4c0.9,0,1.7,0.1,2.4,0.4s1.2,0.7,1.6,1.2c0.4,0.5,0.6,1.1,0.6,1.8l-1.6,0.1
			c-0.1-0.7-0.4-1.3-0.8-1.7c-0.5-0.4-1.2-0.6-2.1-0.6c-1,0-1.7,0.2-2.1,0.5c-0.4,0.3-0.7,0.7-0.7,1.2c0,0.4,0.2,0.8,0.5,1
			c0.3,0.3,1.1,0.5,2.4,0.8c1.3,0.3,2.2,0.5,2.7,0.7c0.7,0.3,1.2,0.7,1.6,1.2s0.5,1,0.5,1.6c0,0.6-0.2,1.2-0.6,1.7
			c-0.4,0.5-0.9,1-1.6,1.3s-1.5,0.5-2.4,0.5c-1.1,0-2-0.2-2.8-0.5c-0.8-0.3-1.3-0.8-1.8-1.4C243.6,60.2,243.4,59.5,243.3,58.7z"/>
		<path class="st1" d="M254.6,58.3c0-1.5,0.5-2.7,1.4-3.4c0.8-0.6,1.7-0.9,2.8-0.9c1.2,0,2.2,0.4,3,1.1c0.8,0.8,1.2,1.8,1.2,3.1
			c0,1.1-0.2,1.9-0.5,2.5c-0.3,0.6-0.8,1.1-1.5,1.4s-1.4,0.5-2.1,0.5c-1.2,0-2.2-0.4-3-1.1S254.6,59.7,254.6,58.3z M256.1,58.3
			c0,1.1,0.2,1.9,0.7,2.4c0.5,0.5,1.1,0.8,1.9,0.8c0.7,0,1.4-0.3,1.9-0.8s0.7-1.4,0.7-2.4c0-1-0.2-1.8-0.7-2.3
			c-0.5-0.5-1.1-0.8-1.9-0.8c-0.8,0-1.4,0.3-1.9,0.8C256.4,56.4,256.1,57.2,256.1,58.3z"/>
		<path class="st1" d="M270.5,62.4v-1.2c-0.7,0.9-1.6,1.4-2.8,1.4c-0.5,0-1-0.1-1.5-0.3c-0.5-0.2-0.8-0.4-1-0.7
			c-0.2-0.3-0.4-0.6-0.5-1c-0.1-0.3-0.1-0.7-0.1-1.3v-5.2h1.5v4.6c0,0.7,0,1.2,0.1,1.5c0.1,0.4,0.3,0.7,0.6,0.9
			c0.3,0.2,0.7,0.3,1.1,0.3c0.5,0,0.9-0.1,1.3-0.3c0.4-0.2,0.7-0.5,0.8-0.9c0.2-0.4,0.2-0.9,0.2-1.6v-4.5h1.5v8.4H270.5z"/>
		<path class="st1" d="M277.5,61.2l0.2,1.3c-0.4,0.1-0.8,0.1-1.1,0.1c-0.5,0-1-0.1-1.3-0.2c-0.3-0.2-0.5-0.4-0.6-0.6
			c-0.1-0.3-0.2-0.8-0.2-1.7v-4.8h-1.1v-1.1h1.1V52l1.5-0.8v2.9h1.5v1.1H276v4.9c0,0.4,0,0.7,0.1,0.8s0.1,0.2,0.3,0.3
			c0.1,0.1,0.3,0.1,0.5,0.1C277,61.2,277.2,61.2,277.5,61.2z"/>
		<path class="st1" d="M279,62.4V50.9h1.5V55c0.7-0.8,1.6-1.1,2.7-1.1c0.7,0,1.2,0.1,1.7,0.4c0.5,0.2,0.8,0.6,1,1
			c0.2,0.4,0.3,1.1,0.3,1.9v5.3h-1.5v-5.3c0-0.7-0.2-1.2-0.5-1.5s-0.8-0.5-1.4-0.5c-0.4,0-0.9,0.1-1.3,0.3s-0.7,0.5-0.8,0.9
			c-0.2,0.4-0.3,0.9-0.3,1.5v4.6H279z"/>
		<path class="st1" d="M294.6,59.8l1.6,0.2c-0.2,0.9-0.7,1.5-1.4,2c-0.7,0.5-1.5,0.7-2.5,0.7c-1.3,0-2.3-0.4-3.1-1.1
			c-0.8-0.8-1.1-1.8-1.1-3.2c0-1.4,0.4-2.5,1.2-3.3c0.8-0.8,1.8-1.2,3-1.2c1.2,0,2.2,0.4,2.9,1.1c0.8,0.8,1.1,1.8,1.1,3.2
			c0,0.1,0,0.2,0,0.4h-6.6c0.1,0.9,0.3,1.6,0.8,2.1c0.5,0.5,1.1,0.7,1.9,0.7c0.6,0,1-0.1,1.4-0.4S294.4,60.3,294.6,59.8z
			 M289.6,57.5h5c-0.1-0.7-0.3-1.2-0.6-1.6c-0.5-0.5-1.1-0.8-1.9-0.8c-0.7,0-1.3,0.2-1.7,0.7C289.9,56.1,289.7,56.7,289.6,57.5z"/>
		<path class="st1" d="M298,62.4v-8.4h1.4v1.3c0.3-0.6,0.7-1,1-1.2c0.3-0.2,0.6-0.3,1-0.3c0.5,0,1,0.2,1.5,0.5l-0.5,1.3
			c-0.4-0.2-0.7-0.3-1.1-0.3c-0.3,0-0.6,0.1-0.9,0.3c-0.3,0.2-0.4,0.4-0.6,0.8c-0.2,0.5-0.3,1.1-0.3,1.7v4.4H298z"/>
		<path class="st1" d="M303.7,62.4v-8.4h1.4v1.2c0.7-0.9,1.6-1.4,2.8-1.4c0.5,0,1,0.1,1.5,0.3c0.4,0.2,0.8,0.4,1,0.7
			c0.2,0.3,0.4,0.6,0.5,1c0.1,0.3,0.1,0.7,0.1,1.4v5.1h-1.5v-5.1c0-0.6-0.1-1-0.2-1.3c-0.1-0.3-0.3-0.5-0.6-0.7
			c-0.3-0.2-0.6-0.3-1.1-0.3c-0.6,0-1.2,0.2-1.7,0.6s-0.7,1.1-0.7,2.2v4.6H303.7z"/>
		<path class="st1" d="M315.9,62.4l4.7-11.5h1.7l5,11.5h-1.8l-1.4-3.5H319l-1.3,3.5H315.9z M319.5,57.7h4.2l-1.3-3.2
			c-0.4-1-0.7-1.8-0.9-2.4c-0.2,0.7-0.4,1.5-0.7,2.2L319.5,57.7z"/>
		<path class="st1" d="M328.9,62.4v-7.3h-1.3v-1.1h1.3v-0.9c0-0.6,0.1-1,0.2-1.3c0.1-0.4,0.4-0.7,0.8-0.9c0.4-0.2,0.9-0.3,1.5-0.3
			c0.4,0,0.9,0,1.4,0.1l-0.2,1.2c-0.3-0.1-0.6-0.1-0.9-0.1c-0.5,0-0.8,0.1-1,0.3c-0.2,0.2-0.3,0.5-0.3,1v0.8h1.7v1.1h-1.7v7.3H328.9
			z"/>
		<path class="st1" d="M333.3,62.4v-8.4h1.4v1.3c0.3-0.6,0.7-1,1-1.2c0.3-0.2,0.6-0.3,1-0.3c0.5,0,1,0.2,1.5,0.5l-0.5,1.3
			c-0.4-0.2-0.7-0.3-1.1-0.3c-0.3,0-0.6,0.1-0.9,0.3c-0.3,0.2-0.4,0.4-0.6,0.8c-0.2,0.5-0.3,1.1-0.3,1.7v4.4H333.3z"/>
		<path class="st1" d="M339,52.5v-1.6h1.5v1.6H339z M339,62.4v-8.4h1.5v8.4H339z"/>
		<path class="st1" d="M348.6,59.4l1.5,0.2c-0.2,1-0.6,1.7-1.2,2.3c-0.7,0.5-1.5,0.8-2.5,0.8c-1.2,0-2.2-0.4-2.9-1.1
			c-0.7-0.7-1.1-1.8-1.1-3.2c0-0.9,0.2-1.7,0.5-2.4s0.8-1.2,1.5-1.5c0.6-0.3,1.4-0.5,2.1-0.5c1,0,1.8,0.2,2.4,0.7
			c0.6,0.5,1,1.1,1.2,2l-1.5,0.2c-0.1-0.6-0.4-1-0.7-1.3c-0.4-0.3-0.8-0.4-1.3-0.4c-0.8,0-1.4,0.3-1.8,0.8c-0.5,0.5-0.7,1.3-0.7,2.4
			c0,1.1,0.2,1.9,0.7,2.4c0.5,0.5,1.1,0.8,1.8,0.8c0.6,0,1.1-0.2,1.5-0.5C348.2,60.6,348.5,60.1,348.6,59.4z"/>
		<path class="st1" d="M357.2,61.4c-0.6,0.4-1.1,0.8-1.6,0.9c-0.5,0.2-1.1,0.3-1.7,0.3c-1,0-1.7-0.2-2.3-0.7c-0.5-0.4-0.8-1-0.8-1.7
			c0-0.4,0.1-0.8,0.3-1.1c0.2-0.3,0.5-0.6,0.8-0.8c0.3-0.2,0.7-0.4,1.1-0.5c0.3-0.1,0.7-0.1,1.3-0.2c1.2-0.1,2.1-0.3,2.7-0.5
			c0-0.2,0-0.3,0-0.4c0-0.6-0.1-1-0.4-1.2c-0.4-0.3-1-0.5-1.7-0.5c-0.7,0-1.2,0.1-1.6,0.4s-0.6,0.6-0.7,1.2l-1.5-0.2
			c0.1-0.6,0.4-1.1,0.7-1.4s0.8-0.6,1.3-0.8c0.6-0.2,1.3-0.3,2-0.3c0.8,0,1.4,0.1,1.8,0.3c0.5,0.2,0.8,0.4,1,0.6
			c0.2,0.3,0.4,0.6,0.5,1c0,0.2,0.1,0.7,0.1,1.3v1.9c0,1.3,0,2.1,0.1,2.5c0.1,0.3,0.2,0.7,0.4,1h-1.6
			C357.3,62.1,357.2,61.8,357.2,61.4z M357,58.2c-0.5,0.2-1.4,0.4-2.5,0.5c-0.6,0.1-1.1,0.2-1.3,0.3c-0.3,0.1-0.5,0.3-0.6,0.5
			s-0.2,0.4-0.2,0.7c0,0.4,0.2,0.7,0.5,0.9c0.3,0.3,0.7,0.4,1.3,0.4c0.6,0,1.1-0.1,1.5-0.4c0.5-0.2,0.8-0.6,1-1
			c0.2-0.3,0.2-0.8,0.2-1.4V58.2z"/>
	</g>
	<g class="st0">
		<path class="st1" d="M27.3,16.3h-8V14c0-1-0.1-1.7-0.3-2c-0.2-0.3-0.5-0.4-1-0.4c-0.5,0-0.9,0.2-1.2,0.6c-0.3,0.4-0.4,1-0.4,1.8
			c0,1,0.1,1.8,0.4,2.3c0.3,0.5,1.1,1.1,2.4,1.8c3.8,2.1,6.2,3.8,7.2,5.1c1,1.3,1.5,3.5,1.5,6.4c0,2.1-0.3,3.7-0.8,4.7
			c-0.6,1-1.6,1.9-3.2,2.6c-1.6,0.7-3.4,1-5.5,1c-2.3,0-4.3-0.4-5.9-1.2c-1.6-0.8-2.7-1.8-3.2-3s-0.8-3-0.8-5.2v-2h8v3.7
			c0,1.1,0.1,1.9,0.3,2.2c0.2,0.3,0.6,0.5,1.2,0.5c0.6,0,1-0.2,1.3-0.6c0.3-0.4,0.4-1,0.4-1.8c0-1.8-0.3-2.9-0.8-3.5
			c-0.5-0.5-1.9-1.5-4-2.7c-2.1-1.3-3.5-2.2-4.2-2.8c-0.7-0.6-1.3-1.4-1.7-2.4c-0.5-1-0.7-2.3-0.7-3.9c0-2.3,0.3-4,1-5.1
			c0.6-1.1,1.7-1.9,3.1-2.5c1.4-0.6,3.2-0.9,5.2-0.9c2.2,0,4.1,0.3,5.7,1C25,8.2,26.1,9,26.6,10s0.8,2.7,0.8,5.1V16.3z"/>
		<path class="st1" d="M45.6,7.1l4.9,30.1h-8.8l-0.5-5.4h-3.1l-0.5,5.4h-8.9l4.4-30.1H45.6z M41,26.5c-0.4-3.4-0.9-7.6-1.3-12.7
			c-0.9,5.8-1.4,10-1.6,12.7H41z"/>
		<path class="st1" d="M52,7.1h6.4c4.1,0,6.9,0.2,8.4,0.5c1.5,0.3,2.6,0.9,3.3,1.7c0.8,0.8,1.2,1.7,1.4,2.7c0.2,1,0.3,2.9,0.3,5.7
			v10.5c0,2.7-0.1,4.5-0.4,5.4s-0.8,1.6-1.5,2.1c-0.7,0.5-1.5,0.9-2.6,1.1s-2.6,0.3-4.6,0.3H52V7.1z M60.5,12.3v19.8
			c1.2,0,2-0.2,2.3-0.7c0.3-0.5,0.4-1.7,0.4-3.7V16c0-1.4,0-2.2-0.1-2.6c-0.1-0.4-0.3-0.7-0.7-0.8C62.1,12.4,61.5,12.3,60.5,12.3z"
			/>
		<path class="st1" d="M95.1,20.3h-8.6V15c0-1.5-0.1-2.5-0.3-2.8s-0.6-0.6-1.2-0.6c-0.7,0-1.2,0.2-1.3,0.7c-0.2,0.5-0.3,1.5-0.3,3
			v14c0,1.5,0.1,2.4,0.3,2.9c0.2,0.4,0.6,0.7,1.3,0.7c0.6,0,1.1-0.2,1.3-0.7c0.2-0.4,0.3-1.5,0.3-3.2v-3.8h8.6v1.2
			c0,3.1-0.2,5.3-0.7,6.6c-0.5,1.3-1.5,2.4-3.2,3.4c-1.7,1-3.7,1.5-6.1,1.5c-2.5,0-4.6-0.4-6.2-1.2c-1.6-0.8-2.7-2-3.2-3.5
			s-0.8-3.7-0.8-6.6v-8.8c0-2.2,0.1-3.8,0.2-4.9c0.2-1.1,0.6-2.1,1.5-3.1c0.8-1,1.9-1.8,3.4-2.4c1.4-0.6,3.1-0.9,4.9-0.9
			c2.5,0,4.6,0.4,6.3,1.3c1.6,0.9,2.7,2,3.2,3.3c0.5,1.3,0.8,3.4,0.8,6.2V20.3z"/>
	</g>
	<g class="st0">
		<path class="st1" d="M315.5,31.1v6.1h-6.1v-6.1H315.5z"/>
		<path class="st1" d="M337.7,20.3h-8.5V15c0-1.5-0.1-2.5-0.3-2.8c-0.2-0.4-0.6-0.6-1.2-0.6c-0.7,0-1.1,0.2-1.3,0.7
			c-0.2,0.5-0.3,1.5-0.3,3v14c0,1.5,0.1,2.4,0.3,2.9c0.2,0.4,0.6,0.7,1.3,0.7c0.6,0,1-0.2,1.2-0.7c0.2-0.4,0.3-1.5,0.3-3.2v-3.8h8.5
			v1.2c0,3.1-0.2,5.3-0.7,6.6c-0.5,1.3-1.5,2.4-3.2,3.4s-3.6,1.5-6,1.5c-2.5,0-4.5-0.4-6.1-1.2c-1.6-0.8-2.7-2-3.2-3.5
			s-0.8-3.7-0.8-6.6v-8.8c0-2.2,0.1-3.8,0.2-4.9c0.2-1.1,0.6-2.1,1.4-3.1c0.8-1,1.9-1.8,3.3-2.4c1.4-0.6,3-0.9,4.9-0.9
			c2.5,0,4.6,0.4,6.2,1.3c1.6,0.9,2.7,2,3.2,3.3s0.8,3.4,0.8,6.2V20.3z"/>
		<path class="st1" d="M360.1,24.8c0,3-0.1,5.2-0.2,6.4c-0.2,1.3-0.6,2.4-1.4,3.5c-0.8,1-1.9,1.8-3.3,2.4s-3,0.8-4.8,0.8
			c-1.7,0-3.3-0.3-4.7-0.8c-1.4-0.5-2.5-1.3-3.4-2.4s-1.3-2.2-1.5-3.4c-0.2-1.2-0.2-3.4-0.2-6.5v-5.2c0-3,0.1-5.2,0.2-6.4
			c0.2-1.3,0.6-2.4,1.4-3.5c0.8-1,1.9-1.8,3.3-2.4c1.4-0.6,3-0.8,4.8-0.8c1.7,0,3.3,0.3,4.7,0.8c1.4,0.5,2.5,1.3,3.4,2.4
			c0.8,1.1,1.3,2.2,1.5,3.4c0.2,1.2,0.2,3.4,0.2,6.5V24.8z M351.6,14.9c0-1.4-0.1-2.3-0.3-2.7c-0.2-0.4-0.5-0.6-1-0.6
			c-0.4,0-0.8,0.2-1,0.5c-0.2,0.3-0.4,1.2-0.4,2.8V29c0,1.7,0.1,2.8,0.2,3.2c0.2,0.4,0.5,0.6,1.1,0.6c0.6,0,0.9-0.2,1.1-0.7
			c0.2-0.5,0.2-1.6,0.2-3.4V14.9z"/>
		<path class="st1" d="M389.4,7.1v30.1H382l0-20.3L379,37.3h-5.3l-3.1-19.9l0,19.9h-7.4V7.1h11c0.3,1.8,0.7,3.9,1,6.4l1.2,7.7
			l1.9-14.1H389.4z"/>
	</g>
	<g id="XMLID_21_">
		<g class="st0">
			<path class="st2" d="M117,18.2h-8.3v-2.7c0-1.7-0.1-2.8-0.2-3.2s-0.5-0.7-1.1-0.7c-0.5,0-0.9,0.2-1,0.6c-0.2,0.4-0.3,1.3-0.3,2.9
				v14.5c0,1.4,0.1,2.2,0.3,2.7c0.2,0.4,0.6,0.6,1.1,0.6c0.6,0,1-0.2,1.2-0.7c0.2-0.5,0.3-1.4,0.3-2.8v-3.6h-1.7v-4.6h9.8v16.2h-5.2
				l-0.8-2.2c-0.6,0.9-1.3,1.6-2.1,2.1c-0.9,0.5-1.9,0.7-3.1,0.7c-1.4,0-2.7-0.3-3.9-1c-1.2-0.6-2.1-1.4-2.8-2.4
				c-0.6-0.9-1-1.9-1.2-3c-0.2-1-0.2-2.6-0.2-4.7V18c0-2.9,0.2-5,0.5-6.3c0.3-1.3,1.3-2.5,2.8-3.6s3.6-1.6,6.1-1.6
				c2.4,0,4.5,0.5,6.1,1.4c1.6,0.9,2.7,2.1,3.1,3.4c0.5,1.3,0.7,3.2,0.7,5.6V18.2z"/>
			<path class="st2" d="M139.2,24.8c0,3-0.1,5.2-0.2,6.4c-0.2,1.3-0.6,2.4-1.4,3.5c-0.8,1-1.9,1.8-3.2,2.4c-1.4,0.6-2.9,0.8-4.8,0.8
				c-1.7,0-3.3-0.3-4.6-0.8c-1.4-0.5-2.5-1.3-3.3-2.4c-0.8-1.1-1.3-2.2-1.5-3.4c-0.2-1.2-0.2-3.4-0.2-6.5v-5.2c0-3,0.1-5.2,0.2-6.4
				c0.2-1.3,0.6-2.4,1.4-3.5c0.8-1,1.9-1.8,3.2-2.4c1.4-0.6,2.9-0.8,4.7-0.8c1.7,0,3.3,0.3,4.6,0.8c1.4,0.5,2.5,1.3,3.3,2.4
				c0.8,1.1,1.3,2.2,1.5,3.4c0.2,1.2,0.2,3.4,0.2,6.5V24.8z M130.9,14.9c0-1.4-0.1-2.3-0.2-2.7c-0.2-0.4-0.5-0.6-1-0.6
				c-0.4,0-0.8,0.2-1,0.5s-0.3,1.2-0.3,2.8V29c0,1.7,0.1,2.8,0.2,3.2c0.2,0.4,0.5,0.6,1.1,0.6c0.6,0,0.9-0.2,1.1-0.7
				c0.2-0.5,0.2-1.6,0.2-3.4V14.9z"/>
			<path class="st2" d="M162.2,7.1l-4.2,30.1h-12.7l-4.8-30.1h8.8c1,8.3,1.8,15.3,2.2,21.1c0.4-5.8,0.9-11,1.4-15.5l0.6-5.6H162.2z"
				/>
			<path class="st2" d="M163.6,7.1h13.9v6h-5.6v5.7h5.2v5.7h-5.2v6.6h6.1v6h-14.4V7.1z"/>
			<path class="st2" d="M180.4,7.1h5.9c3.9,0,6.6,0.1,8,0.4c1.4,0.3,2.5,1,3.4,2.2c0.9,1.2,1.3,3,1.3,5.6c0,2.3-0.3,3.9-0.9,4.7
				s-1.8,1.3-3.7,1.5c1.6,0.4,2.8,0.9,3.3,1.5c0.6,0.6,0.9,1.2,1.1,1.8s0.2,2,0.2,4.5v7.9h-7.7v-10c0-1.6-0.1-2.6-0.4-3
				c-0.3-0.4-1-0.6-2.1-0.6v13.6h-8.3V7.1z M188.7,12.3V19c0.9,0,1.6-0.1,2-0.4c0.4-0.2,0.6-1,0.6-2.4v-1.7c0-1-0.2-1.6-0.5-1.9
				C190.4,12.4,189.7,12.3,188.7,12.3z"/>
			<path class="st2" d="M220.8,7.1v30.1h-7.3l-4.3-13.7v13.7h-7V7.1h7l4.7,13.6V7.1H220.8z"/>
			<path class="st2" d="M249.9,7.1v30.1h-7.3l0-20.3l-2.9,20.3h-5.2l-3.1-19.9l0,19.9h-7.3V7.1H235c0.3,1.8,0.6,3.9,1,6.4l1.2,7.7
				l1.9-14.1H249.9z"/>
			<path class="st2" d="M253.2,7.1h13.9v6h-5.6v5.7h5.2v5.7h-5.2v6.6h6.1v6h-14.4V7.1z"/>
			<path class="st2" d="M288.7,7.1v30.1h-7.3L277,23.6v13.7h-7V7.1h7l4.7,13.6V7.1H288.7z"/>
			<path class="st2" d="M308.8,7.1v6h-4.9v24.1h-8.3V13.2h-4.9v-6H308.8z"/>
		</g>
	</g>
</g>
<g id="XMLID_2_">
	<path id="XMLID_17_" class="st3" d="M476,37.4c-0.3-8.4-3.6-15.6-9.8-21.3c-6.2-5.7-13.5-8.3-21.9-8c-15.5,0.6-29,13.4-29,30.4
		c0,16.8,13.6,30.3,30.2,30.4c8.6,0,15.9-3,21.9-9.2C473.3,53.5,476.3,46.1,476,37.4z M445.6,62.9c-13.4,0-24.6-11.2-24.4-24.9
		c0.2-12.9,11.1-24.4,25.1-24.1c12.9,0.3,23.9,11.2,23.9,24.5C470.3,51.7,459.3,62.9,445.6,62.9z"/>
	<path id="XMLID_26_" class="st4" d="M445.5,64.6c-14.2,0-26.1-11.9-26-26.5c0.2-13.7,11.8-26,26.7-25.6c13.7,0.3,25.5,11.9,25.4,26
		C471.7,52.6,460.1,64.6,445.5,64.6z"/>
	<g class="st0">
		<path class="st5" d="M419,42.7c0.2,0,0.3,0,0.5,0c0.2,0.1,0.3,0.2,0.4,0.3c0.1,0.2,0.2,0.3,0.2,0.6c0.1,0.3,0.1,0.5,0,0.7
			c0,0.1-0.1,0.3-0.2,0.4s-0.2,0.2-0.3,0.2c-0.1,0-0.1,0-0.2,0c-0.1,0-0.1-0.1-0.1-0.2c0-0.1,0-0.1,0-0.2c0,0,0.1-0.1,0.1-0.1
			c0.1-0.1,0.1-0.1,0.2-0.2s0.1-0.1,0.1-0.2c0-0.1,0-0.2,0-0.3c0-0.2-0.1-0.3-0.2-0.4c-0.1-0.1-0.2-0.1-0.3-0.1
			c-0.1,0-0.2,0.1-0.2,0.1c0,0.1-0.1,0.1-0.1,0.2c0,0.1,0,0.2,0,0.4c0,0.2,0,0.4-0.1,0.5c0,0.1-0.1,0.3-0.2,0.4
			c-0.1,0.1-0.2,0.2-0.4,0.2c-0.2,0-0.3,0-0.4,0c-0.1-0.1-0.3-0.2-0.3-0.3c-0.1-0.1-0.2-0.3-0.2-0.5c0-0.2,0-0.3,0-0.5
			s0.1-0.2,0.1-0.3c0.1-0.1,0.1-0.2,0.2-0.2c0.1-0.1,0.1-0.1,0.2-0.1c0.1,0,0.1,0,0.2,0c0.1,0,0.1,0.1,0.1,0.2c0,0.1,0,0.1,0,0.2
			c0,0-0.1,0.1-0.1,0.1c-0.1,0.1-0.2,0.1-0.2,0.2c0,0.1-0.1,0.2,0,0.4c0,0.1,0.1,0.3,0.2,0.3c0.1,0.1,0.2,0.1,0.3,0.1
			c0.1,0,0.1,0,0.1-0.1c0,0,0.1-0.1,0.1-0.1s0-0.1,0-0.2c0-0.1,0-0.2,0-0.3c0-0.2,0-0.3,0-0.4c0-0.1,0-0.3,0.1-0.4
			c0-0.1,0.1-0.2,0.2-0.3C418.8,42.8,418.9,42.8,419,42.7z"/>
	</g>
	<g class="st0">
		<path class="st5" d="M416.8,41.1c0-0.3,0-0.5,0.1-0.8c0.1-0.2,0.3-0.4,0.5-0.5c0.2-0.1,0.5-0.2,0.8-0.2c0.2,0,0.4,0,0.6,0
			c0.2,0,0.3,0.1,0.5,0.2c0.1,0.1,0.3,0.2,0.3,0.4c0.1,0.2,0.1,0.4,0.2,0.6c0,0.2,0,0.4-0.1,0.6c-0.1,0.2-0.1,0.3-0.3,0.5
			c-0.1,0.1-0.3,0.2-0.4,0.3c-0.2,0.1-0.4,0.1-0.6,0.1c-0.2,0-0.4,0-0.6,0c-0.2,0-0.3-0.1-0.5-0.2c-0.1-0.1-0.2-0.2-0.3-0.4
			C416.9,41.5,416.8,41.3,416.8,41.1z M418.2,40.2c-0.2,0-0.4,0.1-0.5,0.2c-0.1,0.1-0.3,0.2-0.3,0.3c-0.1,0.1-0.1,0.3-0.1,0.4
			c0,0.1,0,0.2,0.1,0.3c0.1,0.1,0.1,0.2,0.2,0.2c0.1,0.1,0.2,0.1,0.3,0.1c0.1,0,0.3,0,0.4,0c0.2,0,0.3,0,0.4-0.1
			c0.1-0.1,0.2-0.1,0.3-0.2s0.1-0.2,0.2-0.3c0-0.1,0-0.2,0-0.3c0-0.1-0.1-0.3-0.1-0.4c-0.1-0.1-0.2-0.2-0.4-0.3
			C418.6,40.2,418.4,40.2,418.2,40.2z"/>
	</g>
	<g class="st0">
		<path class="st5" d="M418.3,39.1l-1.4,0c-0.1,0-0.2,0-0.3-0.1c-0.1-0.1-0.1-0.1-0.1-0.2c0-0.1,0-0.2,0.1-0.2
			c0.1,0,0.1-0.1,0.3-0.1l1.4,0c0.2,0,0.3,0,0.4,0c0.1,0,0.2-0.1,0.3-0.2c0.1-0.1,0.1-0.2,0.1-0.4c0-0.2,0-0.4-0.2-0.5
			c-0.1-0.1-0.3-0.1-0.5-0.2l-1.4,0c-0.1,0-0.2,0-0.3-0.1c-0.1-0.1-0.1-0.1-0.1-0.2c0-0.1,0-0.2,0.1-0.2c0.1-0.1,0.1-0.1,0.3-0.1
			l1.4,0c0.2,0,0.4,0,0.6,0.1c0.1,0,0.3,0.1,0.4,0.3c0.1,0.1,0.2,0.2,0.2,0.4c0,0.1,0.1,0.3,0.1,0.5c0,0.2,0,0.4-0.1,0.6
			s-0.1,0.3-0.2,0.4c-0.1,0.1-0.2,0.2-0.4,0.2C418.7,39,418.6,39.1,418.3,39.1z"/>
	</g>
	<g class="st0">
		<path class="st5" d="M417.5,34l-0.1,0.6l2,0.3c0.1,0,0.2,0.1,0.3,0.1c0.1,0.1,0.1,0.1,0.1,0.2c0,0.1,0,0.1-0.1,0.2
			c-0.1,0-0.2,0.1-0.3,0l-2-0.3l-0.1,0.6c0,0.1,0,0.2-0.1,0.2c-0.1,0-0.1,0.1-0.2,0c-0.1,0-0.1,0-0.2-0.1c0-0.1,0-0.1,0-0.2l0.2-1.8
			c0-0.1,0-0.2,0.1-0.2c0.1,0,0.1-0.1,0.2,0c0.1,0,0.1,0,0.2,0.1C417.5,33.8,417.5,33.9,417.5,34z"/>
	</g>
	<g class="st0">
		<path class="st5" d="M417.6,32.6l0.8,0.2l0.3-1.2l-0.8-0.2c-0.1,0-0.2-0.1-0.2-0.1c0-0.1-0.1-0.1,0-0.2c0-0.1,0.1-0.1,0.1-0.2
			c0.1,0,0.2,0,0.3,0l2.2,0.5c0.1,0,0.2,0.1,0.2,0.1c0,0.1,0.1,0.1,0,0.2c0,0.1-0.1,0.1-0.1,0.2c-0.1,0-0.2,0-0.3,0l-0.9-0.2
			l-0.3,1.2l0.9,0.2c0.1,0,0.2,0.1,0.2,0.1c0,0.1,0.1,0.1,0,0.2c0,0.1-0.1,0.1-0.1,0.2c-0.1,0-0.2,0-0.3,0l-2.2-0.5
			c-0.1,0-0.2-0.1-0.2-0.1c0-0.1-0.1-0.1,0-0.2c0-0.1,0.1-0.1,0.1-0.2C417.4,32.5,417.5,32.5,417.6,32.6z"/>
	</g>
	<g class="st0">
		<path class="st5" d="M419.1,28.3l-0.4,1.2l0.7,0.2l0.4-1.1c0-0.1,0.1-0.1,0.1-0.2c0.1,0,0.1,0,0.2,0c0.1,0,0.1,0.1,0.1,0.1
			c0,0.1,0,0.1,0,0.2l-0.4,1.1l0.8,0.3l0.5-1.3c0-0.1,0.1-0.1,0.1-0.2c0.1,0,0.1,0,0.2,0c0.1,0,0.1,0.1,0.1,0.1c0,0.1,0,0.1,0,0.2
			l-0.5,1.5c0,0.1-0.1,0.2-0.2,0.2c-0.1,0-0.2,0-0.3,0l-2-0.7c-0.1,0-0.1-0.1-0.2-0.1c0,0-0.1-0.1-0.1-0.1s0-0.1,0-0.2l0.5-1.4
			c0-0.1,0.1-0.1,0.1-0.2c0.1,0,0.1,0,0.2,0s0.1,0.1,0.1,0.1C419.1,28.1,419.1,28.2,419.1,28.3z"/>
	</g>
	<g class="st0">
		<path class="st5" d="M420.8,27.2l-0.1,0.2l0.8,0.4c0.1,0.1,0.2,0.1,0.2,0.2s0,0.1,0,0.2c0,0.1-0.1,0.1-0.2,0.2s-0.2,0-0.3,0
			l-2-0.9c-0.1-0.1-0.2-0.1-0.2-0.2c0-0.1,0-0.2,0-0.3l0.4-0.8c0.1-0.1,0.1-0.2,0.2-0.3c0-0.1,0.1-0.1,0.2-0.2
			c0.1-0.1,0.2-0.1,0.2-0.1c0.1,0,0.2,0,0.3,0c0.1,0,0.2,0,0.3,0.1c0.2,0.1,0.3,0.2,0.4,0.4c0.1,0.2,0.1,0.4,0,0.6
			c0.1-0.1,0.2-0.1,0.3-0.2s0.3-0.1,0.4-0.1c0.1,0,0.3,0,0.4,0c0.1,0,0.2,0,0.2,0c0,0,0.1,0,0.1,0.1c0,0,0,0.1,0,0.1
			c0,0,0,0.1,0,0.1c0,0.1-0.1,0.1-0.1,0.1c0,0-0.1,0-0.2,0.1c-0.1,0-0.1,0-0.2,0l-0.4,0c-0.2,0-0.3,0-0.4,0.1
			c-0.1,0-0.2,0.1-0.2,0.1C420.9,27,420.9,27.1,420.8,27.2z M419.9,26.3l-0.2,0.5l0.7,0.3l0.2-0.5c0.1-0.1,0.1-0.2,0.1-0.3
			c0-0.1,0-0.2,0-0.2c0-0.1-0.1-0.1-0.2-0.2c-0.1,0-0.1,0-0.2,0c-0.1,0-0.1,0-0.2,0.1C420.1,26.1,420,26.2,419.9,26.3z"/>
	</g>
	<g class="st0">
		<path class="st5" d="M421.1,23.9l2-0.1l-1.4-0.9c-0.1-0.1-0.1-0.1-0.2-0.2c0-0.1,0-0.1,0-0.2c0-0.1,0.1-0.1,0.2-0.1s0.2,0,0.2,0.1
			l1.9,1.2c0.2,0.1,0.3,0.3,0.2,0.5c0,0-0.1,0.1-0.1,0.1c0,0-0.1,0-0.1,0.1s-0.1,0-0.1,0s-0.1,0-0.2,0l-2,0l1.4,0.9
			c0.1,0.1,0.1,0.1,0.2,0.2c0,0.1,0,0.1,0,0.2c0,0.1-0.1,0.1-0.2,0.1c-0.1,0-0.2,0-0.2-0.1l-1.9-1.2c-0.1,0-0.1-0.1-0.2-0.1
			c0-0.1-0.1-0.1-0.1-0.2c0-0.1,0-0.1,0-0.2c0,0,0.1-0.1,0.1-0.1c0,0,0.1,0,0.1,0c0,0,0.1,0,0.1,0C420.9,23.9,421,23.9,421.1,23.9z"
			/>
	</g>
	<g class="st0">
		<path class="st5" d="M425.9,21l-0.4-0.1l-0.7,0.9l0.2,0.3c0.1,0.1,0.1,0.2,0.1,0.3s0,0.1-0.1,0.2c0,0.1-0.1,0.1-0.2,0.1
			c-0.1,0-0.1,0-0.2-0.1c0,0-0.1-0.1-0.1-0.1c0,0-0.1-0.1-0.1-0.2l-0.9-1.7c0,0-0.1-0.1-0.1-0.2c0-0.1-0.1-0.1-0.1-0.2
			c0-0.1,0-0.1,0-0.2c0-0.1,0-0.1,0.1-0.2c0.1-0.1,0.1-0.1,0.2-0.1c0.1,0,0.1,0,0.2,0c0.1,0,0.1,0,0.2,0c0.1,0,0.1,0,0.2,0.1
			l1.9,0.6c0.1,0,0.2,0.1,0.3,0.1c0.1,0,0.1,0.1,0.1,0.2c0,0.1,0,0.1-0.1,0.2c0,0-0.1,0.1-0.1,0.1c0,0-0.1,0-0.1,0c0,0-0.1,0-0.1,0
			C426,21.1,426,21.1,425.9,21z M424.6,21.4l0.5-0.6l-1.2-0.4L424.6,21.4z"/>
	</g>
	<g class="st0">
		<path class="st5" d="M426.4,17.6l-0.8,0.8l0.5,0.5l0.7-0.7c0.1-0.1,0.1-0.1,0.2-0.1c0.1,0,0.1,0,0.2,0.1c0,0,0.1,0.1,0.1,0.2
			c0,0.1,0,0.1-0.1,0.2l-0.7,0.7l0.7,0.7c0.1,0.1,0.1,0.2,0.1,0.2c0,0.1,0,0.1-0.1,0.2c-0.1,0.1-0.1,0.1-0.2,0.1
			c-0.1,0-0.2,0-0.2-0.1l-1.5-1.6c-0.1-0.1-0.1-0.1-0.1-0.2c0-0.1,0-0.1,0-0.2c0-0.1,0.1-0.1,0.1-0.2l1-0.9c0.1-0.1,0.1-0.1,0.2-0.1
			c0.1,0,0.1,0,0.2,0.1c0,0,0.1,0.1,0.1,0.2C426.5,17.5,426.5,17.5,426.4,17.6z"/>
	</g>
	<g class="st0">
		<path class="st5" d="M428.3,17.5l-0.2,0.1l0.6,0.7c0.1,0.1,0.1,0.2,0.1,0.3c0,0.1,0,0.1-0.1,0.2c-0.1,0.1-0.1,0.1-0.2,0.1
			c-0.1,0-0.2-0.1-0.2-0.2l-1.4-1.7c-0.1-0.1-0.1-0.2-0.1-0.3c0-0.1,0.1-0.2,0.2-0.2l0.7-0.6c0.1-0.1,0.2-0.1,0.3-0.2
			c0.1,0,0.2-0.1,0.2-0.1c0.1,0,0.2,0,0.3,0c0.1,0,0.2,0,0.3,0.1c0.1,0,0.2,0.1,0.2,0.2c0.1,0.2,0.2,0.3,0.2,0.5
			c0,0.2-0.1,0.4-0.3,0.5c0.1,0,0.2,0,0.4,0c0.1,0,0.3,0.1,0.4,0.1s0.2,0.1,0.3,0.1c0.1,0,0.1,0.1,0.2,0.1s0,0.1,0,0.1
			c0,0,0,0.1,0,0.1c0,0,0,0.1-0.1,0.1c0,0-0.1,0.1-0.2,0.1c-0.1,0-0.1,0-0.2,0c-0.1,0-0.1,0-0.2-0.1l-0.4-0.2
			c-0.2-0.1-0.3-0.1-0.4-0.1c-0.1,0-0.2,0-0.2,0C428.5,17.4,428.4,17.4,428.3,17.5z M427.9,16.3l-0.4,0.3l0.5,0.6l0.4-0.3
			c0.1-0.1,0.2-0.2,0.2-0.2c0.1-0.1,0.1-0.2,0.1-0.2c0-0.1,0-0.2-0.1-0.2c0-0.1-0.1-0.1-0.2-0.1c-0.1,0-0.1,0-0.2,0
			C428.1,16.1,428,16.2,427.9,16.3z"/>
	</g>
	<g class="st0">
		<path class="st5" d="M430.6,16.9l-1.3-1.8c-0.1-0.1-0.1-0.2-0.1-0.3c0-0.1,0-0.1,0.1-0.2c0.1,0,0.1-0.1,0.2,0
			c0.1,0,0.1,0.1,0.2,0.2l1.3,1.8c0.1,0.1,0.1,0.2,0.1,0.3s-0.1,0.1-0.1,0.2c-0.1,0-0.1,0.1-0.2,0C430.7,17.1,430.6,17,430.6,16.9z"
			/>
	</g>
	<g class="st0">
		<path class="st5" d="M433.4,14.5c0,0.1,0.1,0.2,0.1,0.3c0,0.1,0,0.2,0,0.4c0,0.1-0.1,0.3-0.2,0.4c-0.1,0.1-0.2,0.2-0.4,0.3
			c-0.1,0.1-0.3,0.1-0.4,0.2c-0.1,0-0.2,0.1-0.4,0.1c-0.1,0-0.2,0-0.4-0.1c-0.1,0-0.2-0.1-0.3-0.2c-0.1-0.1-0.2-0.2-0.3-0.2
			c-0.1-0.1-0.2-0.2-0.2-0.3c-0.1-0.2-0.2-0.4-0.2-0.6s0-0.4,0-0.5c0-0.2,0.1-0.3,0.2-0.5c0.1-0.1,0.2-0.3,0.4-0.4
			c0.2-0.1,0.4-0.2,0.6-0.2c0.2,0,0.4,0,0.5,0.1c0.2,0.1,0.3,0.2,0.3,0.3c0,0.1,0,0.1,0,0.2c0,0.1-0.1,0.1-0.1,0.1
			c-0.1,0-0.1,0-0.2,0c0,0-0.1,0-0.2-0.1c-0.1-0.1-0.3-0.1-0.4-0.1c-0.1,0-0.2,0-0.4,0.1c-0.2,0.1-0.3,0.3-0.4,0.5
			c0,0.2,0,0.5,0.2,0.8c0.1,0.2,0.2,0.3,0.4,0.4c0.1,0.1,0.3,0.1,0.4,0.2c0.1,0,0.3,0,0.4-0.1c0.1-0.1,0.2-0.2,0.3-0.3
			c0.1-0.1,0.1-0.3,0-0.4c0-0.1,0-0.1,0-0.2c0-0.1,0-0.1,0.1-0.1c0.1,0,0.1,0,0.2,0C433.3,14.4,433.3,14.4,433.4,14.5z"/>
	</g>
	<g class="st0">
		<path class="st5" d="M435.7,14.1l-0.3-0.3l-1.1,0.5l0,0.4c0,0.1,0,0.3,0,0.3c0,0.1-0.1,0.1-0.1,0.1c-0.1,0-0.1,0-0.2,0
			c-0.1,0-0.1-0.1-0.1-0.1c0,0,0-0.1,0-0.1c0,0,0-0.1,0-0.2l-0.1-2c0-0.1,0-0.1,0-0.2c0-0.1,0-0.1,0-0.2c0-0.1,0-0.1,0.1-0.2
			c0,0,0.1-0.1,0.2-0.1c0.1,0,0.1,0,0.2,0c0.1,0,0.1,0,0.2,0.1c0,0,0.1,0.1,0.1,0.1c0,0,0.1,0.1,0.2,0.2l1.4,1.4
			c0.1,0.1,0.2,0.2,0.2,0.2c0,0.1,0,0.1,0,0.2c0,0.1-0.1,0.1-0.1,0.2c0,0-0.1,0-0.1,0c0,0-0.1,0-0.1,0c0,0-0.1,0-0.1-0.1
			C435.8,14.1,435.8,14.1,435.7,14.1z M434.4,13.8l0.8-0.3l-0.9-0.9L434.4,13.8z"/>
	</g>
	<g class="st0">
		<path class="st5" d="M437.3,10.8l0.7-0.2c0.2-0.1,0.4-0.1,0.5-0.1c0.1,0,0.3,0,0.4,0.1c0.4,0.2,0.6,0.5,0.7,1
			c0,0.2,0.1,0.3,0.1,0.5c0,0.1,0,0.3,0,0.4c0,0.1-0.1,0.2-0.1,0.4c-0.1,0.1-0.1,0.2-0.2,0.2c-0.1,0.1-0.2,0.1-0.3,0.2
			c-0.1,0-0.2,0.1-0.3,0.1l-0.7,0.2c-0.1,0-0.2,0-0.2,0c-0.1,0-0.1-0.1-0.1-0.1c0-0.1-0.1-0.1-0.1-0.2l-0.6-2c0-0.1,0-0.2,0-0.3
			C437.1,10.9,437.2,10.9,437.3,10.8z M437.6,11.2l0.5,1.9l0.4-0.1c0.1,0,0.2,0,0.2-0.1c0.1,0,0.1,0,0.2-0.1c0,0,0.1-0.1,0.1-0.1
			c0.1-0.2,0.2-0.5,0.1-0.9c-0.1-0.3-0.2-0.5-0.3-0.6c-0.1-0.1-0.2-0.2-0.4-0.2c-0.1,0-0.3,0-0.4,0.1L437.6,11.2z"/>
	</g>
	<g class="st0">
		<path class="st5" d="M442,10.3l-1.3,0.2l0.1,0.7L442,11c0.1,0,0.2,0,0.2,0c0,0,0.1,0.1,0.1,0.1c0,0.1,0,0.1,0,0.2
			c0,0-0.1,0.1-0.2,0.1l-1.2,0.2l0.1,0.8l1.3-0.2c0.1,0,0.2,0,0.2,0c0.1,0,0.1,0.1,0.1,0.2c0,0.1,0,0.1,0,0.2c0,0-0.1,0.1-0.2,0.1
			l-1.5,0.2c-0.1,0-0.2,0-0.3,0c-0.1,0-0.1-0.1-0.1-0.3l-0.3-2.1c0-0.1,0-0.1,0-0.2c0-0.1,0-0.1,0.1-0.1c0,0,0.1-0.1,0.2-0.1
			l1.5-0.2c0.1,0,0.2,0,0.2,0c0,0,0.1,0.1,0.1,0.1c0,0.1,0,0.1,0,0.2C442.1,10.2,442,10.3,442,10.3z"/>
	</g>
	<g class="st0">
		<path class="st5" d="M443.3,10l0.8,1.9l0.5-1.9c0-0.1,0-0.2,0.1-0.2c0,0,0-0.1,0.1-0.1c0,0,0.1-0.1,0.2-0.1c0,0,0.1,0,0.1,0
			c0,0,0.1,0.1,0.1,0.1c0,0,0,0.1,0,0.1c0,0,0,0.1,0,0.1c0,0,0,0.1,0,0.1c0,0,0,0.1,0,0.1l-0.6,1.9c0,0.1,0,0.1-0.1,0.2
			c0,0.1,0,0.1-0.1,0.2c0,0-0.1,0.1-0.1,0.1c-0.1,0-0.1,0.1-0.2,0.1c-0.1,0-0.1,0-0.2,0c-0.1,0-0.1-0.1-0.1-0.1s-0.1-0.1-0.1-0.2
			c0-0.1-0.1-0.1-0.1-0.2l-0.8-1.8c0,0,0-0.1,0-0.1c0,0,0-0.1,0-0.1c0,0,0-0.1,0-0.1c0-0.1,0-0.1,0.1-0.2s0.1-0.1,0.2-0.1
			c0.1,0,0.2,0,0.2,0.1S443.3,9.9,443.3,10z"/>
	</g>
	<g class="st0">
		<path class="st5" d="M447.7,10.1l-1.3-0.1l0,0.7l1.2,0c0.1,0,0.2,0,0.2,0.1c0,0,0.1,0.1,0.1,0.2s0,0.1-0.1,0.2
			c0,0-0.1,0.1-0.2,0.1l-1.2,0l0,0.8l1.3,0.1c0.1,0,0.2,0,0.2,0.1c0,0,0.1,0.1,0.1,0.2c0,0.1,0,0.1-0.1,0.2s-0.1,0.1-0.2,0.1
			l-1.6-0.1c-0.1,0-0.2,0-0.3-0.1c-0.1-0.1-0.1-0.1-0.1-0.3l0.1-2.1c0-0.1,0-0.1,0-0.2c0-0.1,0.1-0.1,0.1-0.1c0.1,0,0.1,0,0.2,0
			l1.5,0.1c0.1,0,0.2,0,0.2,0.1c0,0,0.1,0.1,0.1,0.2c0,0.1,0,0.1-0.1,0.2S447.8,10.1,447.7,10.1z"/>
	</g>
	<g class="st0">
		<path class="st5" d="M449.2,10.1l-0.3,2l1.2,0.2c0.1,0,0.2,0,0.2,0.1c0,0.1,0.1,0.1,0.1,0.2c0,0.1,0,0.1-0.1,0.2
			c-0.1,0-0.1,0-0.2,0l-1.4-0.2c-0.1,0-0.2-0.1-0.3-0.1c0-0.1-0.1-0.2,0-0.3l0.3-2.2c0-0.1,0.1-0.2,0.1-0.2c0.1,0,0.1-0.1,0.2-0.1
			c0.1,0,0.2,0.1,0.2,0.1C449.2,9.9,449.3,10,449.2,10.1z"/>
	</g>
	<g class="st0">
		<path class="st5" d="M452.5,10.4c0.3,0.1,0.5,0.2,0.7,0.4c0.2,0.2,0.3,0.4,0.3,0.6c0.1,0.2,0,0.5,0,0.8c-0.1,0.2-0.1,0.4-0.2,0.6
			c-0.1,0.2-0.2,0.3-0.4,0.4c-0.1,0.1-0.3,0.2-0.5,0.2c-0.2,0-0.4,0-0.6,0c-0.2-0.1-0.4-0.1-0.5-0.2c-0.2-0.1-0.3-0.2-0.4-0.4
			c-0.1-0.2-0.1-0.3-0.1-0.5s0-0.4,0.1-0.6c0.1-0.2,0.1-0.4,0.2-0.6c0.1-0.2,0.2-0.3,0.4-0.4c0.1-0.1,0.3-0.2,0.5-0.2
			C452.1,10.3,452.3,10.3,452.5,10.4z M453,12c0.1-0.2,0.1-0.4,0-0.5c0-0.2-0.1-0.3-0.2-0.4c-0.1-0.1-0.2-0.2-0.4-0.2
			c-0.1,0-0.2,0-0.3,0c-0.1,0-0.2,0.1-0.3,0.1c-0.1,0.1-0.2,0.2-0.2,0.3s-0.1,0.2-0.2,0.4c0,0.2-0.1,0.3,0,0.4c0,0.1,0,0.3,0.1,0.4
			c0.1,0.1,0.1,0.2,0.2,0.2c0.1,0.1,0.2,0.1,0.3,0.1c0.1,0,0.3,0,0.4,0c0.1,0,0.3-0.1,0.4-0.3C452.8,12.4,452.9,12.2,453,12z"/>
	</g>
	<g class="st0">
		<path class="st5" d="M455,13l-0.5-0.2l-0.3,0.8c0,0.1-0.1,0.2-0.2,0.2c-0.1,0-0.1,0-0.2,0c-0.1,0-0.1-0.1-0.2-0.2
			c0-0.1,0-0.2,0-0.3l0.8-2c0-0.1,0.1-0.2,0.2-0.2c0.1,0,0.2,0,0.3,0l0.7,0.3c0.2,0.1,0.4,0.2,0.5,0.2c0.1,0.1,0.2,0.2,0.2,0.3
			c0.1,0.1,0.1,0.2,0.1,0.3c0,0.1,0,0.2-0.1,0.4c-0.1,0.3-0.3,0.4-0.5,0.5C455.6,13.2,455.3,13.1,455,13z M455.3,11.8l-0.4-0.1
			l-0.3,0.8l0.4,0.1c0.1,0,0.2,0.1,0.3,0.1c0.1,0,0.2,0,0.2-0.1c0.1,0,0.1-0.1,0.2-0.2c0-0.1,0-0.2,0-0.3
			C455.7,11.9,455.5,11.8,455.3,11.8z"/>
	</g>
	<g class="st0">
		<path class="st5" d="M457.1,14.7l0.4-1.8l-0.9,1.7c0,0.1-0.1,0.2-0.2,0.2c-0.1,0-0.1,0-0.2,0c-0.1,0-0.1-0.1-0.1-0.2
			c0-0.1,0-0.2,0-0.3l1-2c0.1-0.1,0.1-0.2,0.2-0.2c0.1,0,0.2,0,0.3,0.1l0.2,0.1c0.1,0,0.2,0.1,0.2,0.1c0,0,0.1,0.1,0,0.1
			c0,0.1,0,0.1,0,0.3l-0.3,1.6l1.1-1.2c0.1-0.1,0.1-0.1,0.2-0.2c0,0,0.1,0,0.1,0c0.1,0,0.1,0,0.2,0.1l0.2,0.1c0.1,0,0.2,0.1,0.2,0.2
			c0,0.1,0,0.2,0,0.3l-1,2c0,0.1-0.1,0.2-0.2,0.2c-0.1,0-0.1,0-0.2,0c-0.1,0-0.1-0.1-0.1-0.2c0-0.1,0-0.2,0-0.2l0.9-1.7l-1.2,1.4
			c-0.1,0.1-0.1,0.2-0.2,0.2c0,0-0.1,0.1-0.2,0.1s-0.1,0-0.2,0c-0.1,0-0.1-0.1-0.1-0.1c0,0,0-0.1,0-0.1c0-0.1,0-0.1,0-0.2
			C457,14.8,457.1,14.7,457.1,14.7z"/>
	</g>
	<g class="st0">
		<path class="st5" d="M461.7,15.1l-1.1-0.7l-0.4,0.6l1,0.6c0.1,0,0.1,0.1,0.1,0.2c0,0.1,0,0.1,0,0.2c0,0.1-0.1,0.1-0.1,0.1
			c-0.1,0-0.1,0-0.2-0.1l-1-0.6l-0.4,0.7l1.1,0.7c0.1,0,0.1,0.1,0.1,0.2c0,0.1,0,0.1,0,0.2c0,0.1-0.1,0.1-0.1,0.1
			c-0.1,0-0.1,0-0.2-0.1l-1.3-0.9c-0.1-0.1-0.2-0.1-0.2-0.2c0-0.1,0-0.2,0.1-0.3l1.2-1.8c0-0.1,0.1-0.1,0.1-0.1c0,0,0.1,0,0.2,0
			c0.1,0,0.1,0,0.2,0.1l1.3,0.8c0.1,0.1,0.1,0.1,0.1,0.2c0,0.1,0,0.1,0,0.2c0,0.1-0.1,0.1-0.1,0.1C461.9,15.2,461.8,15.2,461.7,15.1
			z"/>
	</g>
	<g class="st0">
		<path class="st5" d="M463.2,16l-0.2,2l1.1-1.3c0.1-0.1,0.1-0.1,0.2-0.1c0.1,0,0.1,0,0.2,0.1c0.1,0.1,0.1,0.1,0.1,0.2
			c0,0.1,0,0.2-0.1,0.2l-1.4,1.7c-0.2,0.2-0.3,0.2-0.5,0.1c0,0-0.1-0.1-0.1-0.1c0,0,0-0.1,0-0.1c0,0,0-0.1,0-0.2s0-0.1,0-0.2l0.2-2
			l-1,1.3c-0.1,0.1-0.1,0.1-0.2,0.1c-0.1,0-0.1,0-0.2-0.1c-0.1-0.1-0.1-0.1-0.1-0.2c0-0.1,0-0.2,0.1-0.2l1.4-1.7
			c0.1-0.1,0.1-0.1,0.2-0.1c0.1,0,0.1,0,0.2,0c0.1,0,0.1,0,0.2,0.1c0,0,0.1,0.1,0.1,0.1c0,0,0,0.1,0,0.1c0,0,0,0.1,0,0.1
			C463.2,15.9,463.2,16,463.2,16z"/>
	</g>
	<g class="st0">
		<path class="st5" d="M466.3,19.1l-0.4-0.4l-1.5,1.5c-0.1,0.1-0.2,0.1-0.2,0.1s-0.1,0-0.2-0.1c-0.1-0.1-0.1-0.1-0.1-0.2
			c0-0.1,0-0.2,0.1-0.2l1.5-1.5l-0.4-0.4c-0.1-0.1-0.1-0.1-0.1-0.2c0-0.1,0-0.1,0.1-0.2c0.1-0.1,0.1-0.1,0.2-0.1s0.1,0,0.2,0.1
			l1.3,1.3c0.1,0.1,0.1,0.1,0.1,0.2c0,0.1,0,0.1-0.1,0.2c-0.1,0-0.1,0.1-0.2,0.1C466.4,19.2,466.3,19.1,466.3,19.1z"/>
	</g>
	<g class="st0">
		<path class="st5" d="M467.8,23.3c-0.1,0.1-0.2,0.1-0.3,0.1c-0.1,0-0.2,0-0.4,0c-0.1,0-0.3-0.1-0.4-0.1c-0.1-0.1-0.3-0.2-0.4-0.4
			c-0.1-0.1-0.2-0.2-0.2-0.3c-0.1-0.1-0.1-0.2-0.1-0.3c0-0.1,0-0.2,0-0.4c0-0.1,0.1-0.2,0.1-0.3c0.1-0.1,0.1-0.2,0.2-0.3
			c0.1-0.1,0.2-0.2,0.3-0.3c0.2-0.1,0.4-0.2,0.5-0.3s0.4-0.1,0.5-0.1c0.2,0,0.3,0.1,0.5,0.2c0.2,0.1,0.3,0.2,0.4,0.4
			c0.1,0.2,0.2,0.4,0.3,0.6c0,0.2,0,0.4,0,0.5c0,0.2-0.1,0.3-0.2,0.3c-0.1,0-0.1,0.1-0.2,0c-0.1,0-0.1,0-0.2-0.1
			c0-0.1-0.1-0.1-0.1-0.2c0-0.1,0-0.1,0.1-0.2c0.1-0.1,0.1-0.3,0.1-0.4c0-0.1-0.1-0.2-0.1-0.4c-0.1-0.2-0.3-0.3-0.6-0.3
			c-0.2,0-0.5,0.1-0.7,0.3c-0.2,0.1-0.3,0.3-0.4,0.4c-0.1,0.1-0.1,0.3-0.1,0.4c0,0.1,0.1,0.3,0.2,0.4c0.1,0.1,0.2,0.2,0.4,0.3
			c0.1,0,0.3,0,0.4,0c0.1,0,0.1,0,0.2,0c0.1,0,0.1,0,0.2,0.1c0,0.1,0.1,0.1,0,0.2C467.9,23.2,467.9,23.2,467.8,23.3z"/>
	</g>
	<g class="st0">
		<path class="st5" d="M470.5,23.8c0.2,0.3,0.2,0.5,0.2,0.7c0,0.2-0.1,0.5-0.2,0.7c-0.1,0.2-0.3,0.4-0.6,0.5
			c-0.2,0.1-0.4,0.2-0.6,0.2c-0.2,0-0.4,0-0.5,0c-0.2,0-0.3-0.1-0.5-0.2c-0.1-0.1-0.3-0.3-0.4-0.5c-0.1-0.2-0.2-0.4-0.2-0.6
			c0-0.2,0-0.4,0-0.5c0.1-0.2,0.1-0.3,0.3-0.5c0.1-0.1,0.3-0.3,0.5-0.4c0.2-0.1,0.4-0.2,0.6-0.2c0.2,0,0.4,0,0.5,0
			c0.2,0,0.3,0.1,0.5,0.2C470.2,23.4,470.4,23.6,470.5,23.8z M469.7,25.2c0.2-0.1,0.3-0.2,0.4-0.4s0.1-0.3,0.1-0.4
			c0-0.1,0-0.3-0.1-0.4c-0.1-0.1-0.1-0.2-0.2-0.2c-0.1-0.1-0.2-0.1-0.3-0.1c-0.1,0-0.2,0-0.4,0c-0.1,0-0.3,0.1-0.4,0.2
			c-0.1,0.1-0.3,0.2-0.3,0.3s-0.2,0.2-0.2,0.3c0,0.1,0,0.2,0,0.3c0,0.1,0,0.2,0.1,0.3c0.1,0.1,0.2,0.2,0.3,0.3
			c0.1,0.1,0.3,0.1,0.4,0.1S469.5,25.3,469.7,25.2z"/>
	</g>
	<g class="st0">
		<path class="st5" d="M469.7,27.6l1.5-1.1l-1.8,0.8c-0.1,0-0.2,0.1-0.3,0c-0.1,0-0.1-0.1-0.2-0.1c0-0.1,0-0.1,0-0.2
			s0.1-0.1,0.2-0.2l2-0.9c0.1-0.1,0.2-0.1,0.3,0c0.1,0,0.1,0.1,0.2,0.2l0.1,0.2c0,0.1,0.1,0.2,0.1,0.2c0,0.1,0,0.1-0.1,0.1
			c0,0-0.1,0.1-0.2,0.2l-1.3,1l1.6-0.3c0.1,0,0.2,0,0.3,0c0.1,0,0.1,0,0.1,0.1c0,0,0.1,0.1,0.1,0.2l0.1,0.2c0,0.1,0.1,0.2,0,0.3
			c0,0.1-0.1,0.1-0.2,0.2l-2,0.9c-0.1,0-0.2,0.1-0.3,0c-0.1,0-0.1-0.1-0.2-0.1c0-0.1,0-0.1,0-0.2c0-0.1,0.1-0.1,0.2-0.2l1.8-0.8
			l-1.8,0.3c-0.1,0-0.2,0-0.3,0c-0.1,0-0.1,0-0.2,0c-0.1,0-0.1-0.1-0.1-0.2c0-0.1,0-0.1,0-0.2c0-0.1,0-0.1,0.1-0.1
			c0,0,0.1-0.1,0.1-0.1C469.6,27.7,469.7,27.6,469.7,27.6z"/>
	</g>
	<g class="st0">
		<path class="st5" d="M470.9,30.6l1.6-1l-1.9,0.6c-0.1,0-0.2,0-0.3,0c-0.1,0-0.1-0.1-0.1-0.2c0-0.1,0-0.1,0-0.2
			c0-0.1,0.1-0.1,0.2-0.1l2.1-0.6c0.1,0,0.2,0,0.3,0c0.1,0.1,0.1,0.1,0.1,0.2l0.1,0.2c0,0.1,0,0.2,0,0.2c0,0.1,0,0.1-0.1,0.1
			c0,0-0.1,0.1-0.2,0.1l-1.4,0.8l1.6,0c0.1,0,0.2,0,0.3,0c0.1,0,0.1,0,0.1,0.1c0,0,0.1,0.1,0.1,0.2l0.1,0.2c0,0.1,0,0.2,0,0.3
			c0,0.1-0.1,0.1-0.2,0.2l-2.1,0.6c-0.1,0-0.2,0-0.3,0c-0.1,0-0.1-0.1-0.1-0.2c0-0.1,0-0.1,0-0.2c0-0.1,0.1-0.1,0.2-0.1l1.9-0.6
			l-1.9,0.1c-0.1,0-0.2,0-0.3,0c-0.1,0-0.1,0-0.2-0.1c-0.1,0-0.1-0.1-0.1-0.2c0-0.1,0-0.1,0-0.2c0-0.1,0-0.1,0.1-0.1
			c0,0,0.1-0.1,0.1-0.1C470.8,30.7,470.9,30.7,470.9,30.6z"/>
	</g>
	<g class="st0">
		<path class="st5" d="M472.3,32.8l1.3-0.2c0.1,0,0.2,0,0.3,0c0.1,0,0.1,0.1,0.1,0.2c0,0.1,0,0.2-0.1,0.2c0,0.1-0.1,0.1-0.2,0.1
			l-1.4,0.2c-0.2,0-0.3,0.1-0.4,0.1c-0.1,0.1-0.2,0.1-0.2,0.2c0,0.1-0.1,0.2,0,0.4c0,0.2,0.1,0.4,0.3,0.4c0.1,0.1,0.3,0.1,0.6,0
			l1.4-0.2c0.1,0,0.2,0,0.3,0c0.1,0,0.1,0.1,0.1,0.2c0,0.1,0,0.2-0.1,0.2c0,0.1-0.1,0.1-0.2,0.1l-1.3,0.2c-0.2,0-0.4,0-0.6,0
			c-0.2,0-0.3-0.1-0.4-0.2c-0.1-0.1-0.2-0.2-0.3-0.3c-0.1-0.1-0.1-0.3-0.1-0.5c0-0.2,0-0.4,0-0.6c0-0.2,0.1-0.3,0.2-0.4
			c0.1-0.1,0.2-0.2,0.3-0.3C471.9,32.9,472.1,32.8,472.3,32.8z"/>
	</g>
	<g class="st0">
		<path class="st5" d="M474.1,36.5l-1.6,1.2l1.7-0.1c0.1,0,0.2,0,0.2,0.1c0.1,0,0.1,0.1,0.1,0.2c0,0.1,0,0.1-0.1,0.2
			c-0.1,0.1-0.1,0.1-0.2,0.1l-2.2,0.1c-0.2,0-0.4-0.1-0.4-0.3c0-0.1,0-0.1,0-0.1c0,0,0-0.1,0.1-0.1c0,0,0.1-0.1,0.1-0.1
			c0,0,0.1-0.1,0.1-0.1l1.6-1.2l-1.7,0.1c-0.1,0-0.2,0-0.2-0.1c-0.1,0-0.1-0.1-0.1-0.2c0-0.1,0-0.1,0.1-0.2c0.1-0.1,0.1-0.1,0.2-0.1
			l2.2-0.1c0.1,0,0.2,0,0.2,0c0.1,0,0.1,0.1,0.1,0.1c0,0.1,0.1,0.1,0.1,0.2c0,0.1,0,0.1,0,0.1c0,0,0,0.1-0.1,0.1
			c0,0-0.1,0.1-0.1,0.1C474.2,36.4,474.2,36.4,474.1,36.5z"/>
	</g>
	<g class="st0">
		<path class="st5" d="M472,38.8l2.2,0.1c0.1,0,0.2,0,0.3,0.1c0.1,0.1,0.1,0.1,0.1,0.2c0,0.1,0,0.2-0.1,0.2
			c-0.1,0.1-0.1,0.1-0.3,0.1l-2.2-0.1c-0.1,0-0.2,0-0.3-0.1c-0.1-0.1-0.1-0.1-0.1-0.2c0-0.1,0-0.2,0.1-0.2S471.9,38.8,472,38.8z"/>
	</g>
	<g class="st0">
		<path class="st5" d="M473.8,42l0.1-0.6l-2-0.2c-0.1,0-0.2,0-0.3-0.1c-0.1-0.1-0.1-0.1-0.1-0.2c0-0.1,0-0.2,0.1-0.2
			s0.2-0.1,0.3-0.1l2,0.2l0.1-0.6c0-0.1,0-0.2,0.1-0.2c0,0,0.1-0.1,0.2-0.1c0.1,0,0.1,0,0.2,0.1c0,0.1,0.1,0.1,0,0.2l-0.2,1.8
			c0,0.1,0,0.2-0.1,0.2c0,0-0.1,0.1-0.2,0.1s-0.1,0-0.2-0.1C473.8,42.2,473.8,42.1,473.8,42z"/>
	</g>
	<g class="st0">
		<path class="st5" d="M471.6,43.1l0.9,0.2l1.2-0.5c0.1,0,0.2-0.1,0.2-0.1c0.1,0,0.1,0,0.1,0c0.1,0,0.1,0,0.2,0.1c0,0.1,0,0.1,0,0.2
			c0,0.1,0,0.1-0.1,0.2c0,0-0.1,0.1-0.3,0.1l-0.9,0.4l0.7,0.7c0,0,0.1,0.1,0.1,0.1c0,0,0.1,0.1,0.1,0.1c0,0,0,0.1,0.1,0.1
			c0,0,0,0.1,0,0.1c0,0.1,0,0.1-0.1,0.2c-0.1,0-0.1,0.1-0.2,0c0,0-0.1,0-0.1-0.1c0,0-0.1-0.1-0.2-0.2l-0.9-0.9l-0.9-0.2
			c-0.1,0-0.2-0.1-0.2-0.1s-0.1-0.1,0-0.2s0.1-0.1,0.1-0.2S471.5,43.1,471.6,43.1z"/>
	</g>
	<path id="XMLID_23_" class="st4" d="M445.6,67.7c16.1,0,29-13.2,29-28.9c0.1-15.6-12.9-28.5-28.1-28.8
		c-16.5-0.4-29.4,13.2-29.6,28.4C416.7,54.6,429.9,67.7,445.6,67.7z"/>
	<g class="st0">
		<path class="st5" d="M423.1,52.7l-0.3-0.5l-1.7,1c-0.1,0.1-0.2,0.1-0.3,0.1c-0.1,0-0.1-0.1-0.2-0.1c0-0.1,0-0.1,0-0.2
			c0-0.1,0.1-0.1,0.2-0.2l1.7-1l-0.3-0.5c0-0.1-0.1-0.2-0.1-0.2c0-0.1,0-0.1,0.1-0.1c0.1,0,0.1,0,0.2,0c0.1,0,0.1,0.1,0.2,0.2
			l0.9,1.5c0,0.1,0.1,0.2,0.1,0.2c0,0.1,0,0.1-0.1,0.1s-0.1,0-0.2,0C423.2,52.8,423.2,52.8,423.1,52.7z"/>
	</g>
	<g class="st0">
		<path class="st5" d="M424.5,53.8c0.2,0.2,0.3,0.5,0.3,0.7c0,0.2,0,0.5-0.1,0.7c-0.1,0.2-0.3,0.4-0.5,0.6c-0.2,0.1-0.3,0.2-0.5,0.3
			s-0.3,0.1-0.5,0.1c-0.2,0-0.3-0.1-0.5-0.2c-0.2-0.1-0.3-0.2-0.4-0.4c-0.1-0.2-0.2-0.4-0.2-0.5s0-0.4,0-0.5c0-0.2,0.1-0.3,0.2-0.5
			c0.1-0.1,0.2-0.3,0.4-0.4c0.2-0.1,0.3-0.2,0.5-0.3c0.2-0.1,0.4-0.1,0.5,0c0.2,0,0.3,0.1,0.5,0.2C424.3,53.5,424.4,53.7,424.5,53.8
			z M423.8,55.3c0.2-0.1,0.3-0.2,0.4-0.4c0.1-0.1,0.1-0.3,0.1-0.4c0-0.1-0.1-0.3-0.1-0.4c-0.1-0.1-0.1-0.2-0.2-0.2
			c-0.1-0.1-0.2-0.1-0.3-0.1c-0.1,0-0.2,0-0.3,0c-0.1,0-0.2,0.1-0.4,0.2c-0.1,0.1-0.2,0.2-0.3,0.3c-0.1,0.1-0.1,0.2-0.2,0.3
			c0,0.1,0,0.2,0,0.3c0,0.1,0.1,0.2,0.1,0.3c0.1,0.1,0.2,0.2,0.3,0.3c0.1,0.1,0.3,0.1,0.4,0C423.5,55.5,423.7,55.4,423.8,55.3z"/>
	</g>
	<g class="st0">
		<path class="st5" d="M425.1,58.2l0.9-1.4l-1.5,0.8c-0.1,0.1-0.2,0.1-0.3,0.1c-0.1,0-0.1,0-0.2,0c-0.1,0-0.1,0-0.2-0.1
			c0,0-0.1-0.1-0.1-0.2c0,0,0-0.1,0-0.2c0-0.1,0-0.1,0.1-0.2s0.1-0.1,0.1-0.2l1.1-1.6c0.1-0.1,0.1-0.2,0.2-0.2
			c0.1,0,0.1-0.1,0.2-0.1c0.1,0,0.1,0,0.2,0.1c0.1,0.1,0.1,0.1,0.1,0.2c0,0.1-0.1,0.2-0.1,0.3l-0.9,1.3l1.4-0.7
			c0.1-0.1,0.2-0.1,0.2-0.1c0.1,0,0.1,0,0.2,0c0.1,0,0.1,0,0.2,0.1c0.1,0.1,0.1,0.1,0.1,0.2s0,0.1,0,0.2s-0.1,0.1-0.1,0.2l-0.8,1.3
			l1.4-0.8c0.1,0,0.1-0.1,0.2-0.1c0,0,0.1,0,0.1,0s0.1,0,0.2,0.1s0.1,0.1,0.1,0.2c0,0.1,0,0.1-0.1,0.2c0,0-0.1,0.1-0.2,0.1l-1.7,0.9
			c-0.1,0.1-0.2,0.1-0.3,0.1c-0.1,0-0.1,0-0.2,0c-0.1,0-0.1,0-0.2-0.1c-0.1-0.1-0.1-0.1-0.1-0.2s0-0.1,0-0.2
			C424.9,58.4,425,58.3,425.1,58.2z"/>
	</g>
	<g class="st0">
		<path class="st5" d="M427.5,60.7l0.1-0.3l-0.8-0.7l-0.3,0.2c-0.1,0.1-0.2,0.1-0.3,0.1c-0.1,0-0.1,0-0.2-0.1
			c-0.1,0-0.1-0.1-0.1-0.2c0-0.1,0-0.1,0.1-0.2c0,0,0.1-0.1,0.1-0.1c0,0,0.1,0,0.2-0.1l1.7-0.9c0,0,0.1-0.1,0.2-0.1
			c0.1,0,0.1-0.1,0.2-0.1c0.1,0,0.1,0,0.2,0s0.1,0,0.2,0.1s0.1,0.1,0.1,0.2s0,0.1,0,0.2c0,0.1,0,0.1,0,0.2c0,0.1,0,0.1-0.1,0.2
			l-0.6,1.8c0,0.1-0.1,0.2-0.1,0.3c0,0-0.1,0.1-0.2,0.1s-0.1,0-0.2-0.1c0,0-0.1-0.1-0.1-0.1c0,0,0-0.1,0-0.1c0,0,0-0.1,0-0.1
			C427.5,60.8,427.5,60.8,427.5,60.7z M427.2,59.4l0.6,0.5l0.4-1.1L427.2,59.4z"/>
	</g>
	<g class="st0">
		<path class="st5" d="M429.5,61.2l-0.2-0.1l-0.5,0.7c-0.1,0.1-0.1,0.1-0.2,0.2c-0.1,0-0.1,0-0.2,0c-0.1-0.1-0.1-0.1-0.1-0.2
			c0-0.1,0-0.2,0.1-0.2l1.2-1.7c0.1-0.1,0.1-0.2,0.2-0.2c0.1,0,0.2,0,0.3,0.1l0.7,0.5c0.1,0.1,0.2,0.1,0.3,0.2
			c0.1,0.1,0.1,0.1,0.2,0.2c0,0.1,0.1,0.2,0.1,0.3c0,0.1,0,0.2,0,0.3c0,0.1-0.1,0.2-0.1,0.3c-0.1,0.2-0.3,0.3-0.4,0.3
			c-0.2,0-0.4,0-0.6-0.1c0,0.1,0.1,0.2,0.1,0.4c0,0.1,0,0.3,0,0.4c0,0.1,0,0.3,0,0.3s0,0.2-0.1,0.2c0,0,0,0.1-0.1,0.1
			c0,0-0.1,0-0.1,0c0,0-0.1,0-0.1-0.1c-0.1,0-0.1-0.1-0.1-0.1c0,0,0-0.1,0-0.2c0-0.1,0-0.1,0-0.2l0-0.4c0-0.2,0-0.3,0-0.4
			c0-0.1,0-0.2-0.1-0.2C429.6,61.3,429.6,61.2,429.5,61.2z M430.4,60.4l-0.4-0.3l-0.4,0.6L430,61c0.1,0.1,0.2,0.1,0.3,0.2
			c0.1,0,0.2,0,0.2,0c0.1,0,0.1-0.1,0.2-0.1c0-0.1,0.1-0.1,0.1-0.2c0-0.1,0-0.1-0.1-0.2C430.7,60.6,430.6,60.5,430.4,60.4z"/>
	</g>
	<g class="st0">
		<path class="st5" d="M432.3,61.2l0.6,0.4c0.2,0.1,0.3,0.2,0.4,0.3s0.2,0.2,0.2,0.4c0.1,0.4,0.1,0.7-0.2,1.2
			c-0.1,0.1-0.2,0.3-0.3,0.4c-0.1,0.1-0.2,0.2-0.3,0.3c-0.1,0.1-0.2,0.1-0.3,0.1c-0.1,0-0.2,0-0.3,0c-0.1,0-0.2,0-0.3-0.1
			c-0.1,0-0.2-0.1-0.3-0.1l-0.6-0.4c-0.1-0.1-0.1-0.1-0.2-0.2c0-0.1,0-0.1,0-0.2c0-0.1,0-0.1,0.1-0.2l1-1.7c0.1-0.1,0.1-0.2,0.2-0.2
			C432.1,61.1,432.2,61.1,432.3,61.2z M432.2,61.6l-0.9,1.6l0.4,0.2c0.1,0,0.1,0.1,0.2,0.1c0,0,0.1,0,0.2,0c0.1,0,0.1,0,0.2,0
			c0.2,0,0.5-0.2,0.6-0.6c0.1-0.2,0.2-0.4,0.2-0.6c0-0.2,0-0.3-0.1-0.4c-0.1-0.1-0.2-0.2-0.3-0.3L432.2,61.6z"/>
	</g>
	<g class="st0">
		<path class="st5" d="M435.4,64.9c-0.1,0.2-0.2,0.3-0.3,0.4c-0.1,0.1-0.3,0.1-0.5,0.1c-0.2,0-0.4,0-0.6-0.1
			c-0.2-0.1-0.4-0.2-0.5-0.4c-0.1-0.1-0.1-0.2-0.2-0.4c0-0.1,0-0.3,0-0.4c0-0.1,0.1-0.1,0.1-0.1c0.1,0,0.1,0,0.2,0
			c0.1,0,0.1,0.1,0.1,0.1s0,0.1,0,0.2c0,0.1,0,0.2,0,0.2c0,0.1,0,0.1,0.1,0.2c0.1,0.1,0.1,0.1,0.2,0.2c0.1,0.1,0.3,0.1,0.4,0.1
			c0.1,0,0.2-0.1,0.3-0.2c0-0.1,0-0.2,0-0.2s-0.1-0.1-0.1-0.2c-0.1-0.1-0.2-0.1-0.3-0.2c-0.2-0.1-0.3-0.2-0.4-0.4
			c-0.1-0.1-0.2-0.2-0.2-0.4c0-0.1,0-0.3,0.1-0.4c0.1-0.1,0.2-0.2,0.3-0.3c0.1-0.1,0.3-0.1,0.4-0.1c0.2,0,0.3,0.1,0.5,0.1
			c0.2,0.1,0.3,0.1,0.4,0.2c0.1,0.1,0.2,0.2,0.2,0.3c0,0.1,0.1,0.2,0.1,0.3c0,0.1,0,0.2,0,0.2c0,0.1-0.1,0.1-0.1,0.1s-0.1,0-0.2,0
			c-0.1,0-0.1-0.1-0.1-0.1c0,0,0-0.1,0-0.2c0-0.1,0-0.2-0.1-0.3c0-0.1-0.1-0.2-0.3-0.2c-0.1-0.1-0.2-0.1-0.4-0.1
			c-0.1,0-0.2,0.1-0.2,0.2c0,0,0,0.1,0,0.1c0,0,0,0.1,0.1,0.1c0,0,0.1,0.1,0.1,0.1c0,0,0.1,0.1,0.2,0.2c0.1,0.1,0.2,0.2,0.3,0.3
			c0.1,0.1,0.2,0.2,0.2,0.3c0.1,0.1,0.1,0.2,0.1,0.3S435.5,64.8,435.4,64.9z"/>
	</g>
	<g class="st0">
		<path class="st5" d="M438.4,66.4l0-0.4l-1.1-0.3l-0.2,0.3c-0.1,0.1-0.2,0.2-0.2,0.2c0,0-0.1,0-0.2,0c-0.1,0-0.1-0.1-0.2-0.1
			c0-0.1,0-0.1,0-0.2c0,0,0-0.1,0.1-0.1c0,0,0.1-0.1,0.1-0.1l1.2-1.5c0,0,0.1-0.1,0.1-0.2s0.1-0.1,0.1-0.1c0,0,0.1-0.1,0.2-0.1
			c0.1,0,0.1,0,0.2,0c0.1,0,0.1,0.1,0.2,0.1c0,0,0.1,0.1,0.1,0.1c0,0.1,0,0.1,0,0.2c0,0.1,0,0.1,0,0.2l0.2,1.9c0,0.1,0,0.2,0,0.3
			c0,0.1-0.1,0.1-0.1,0.1c-0.1,0-0.1,0-0.2,0c0,0-0.1,0-0.1-0.1c0,0,0-0.1-0.1-0.1s0-0.1,0-0.1C438.4,66.5,438.4,66.5,438.4,66.4z
			 M437.6,65.4l0.8,0.2l-0.1-1.2L437.6,65.4z"/>
	</g>
	<g class="st0">
		<path class="st5" d="M442.9,66.7c0,0.1,0,0.2-0.1,0.3c-0.1,0.1-0.1,0.2-0.2,0.3c-0.1,0.1-0.2,0.1-0.4,0.2c-0.2,0-0.3,0-0.5,0
			c-0.1,0-0.3-0.1-0.4-0.1c-0.1,0-0.2-0.1-0.3-0.2s-0.2-0.2-0.2-0.3c-0.1-0.1-0.1-0.2-0.1-0.3c0-0.1-0.1-0.2-0.1-0.4s0-0.3,0-0.4
			c0-0.2,0.1-0.4,0.2-0.6c0.1-0.2,0.2-0.3,0.3-0.4c0.1-0.1,0.3-0.2,0.5-0.2s0.3,0,0.5,0c0.2,0,0.4,0.1,0.6,0.2
			c0.2,0.1,0.3,0.2,0.3,0.4s0.1,0.3,0.1,0.4c0,0.1,0,0.1-0.1,0.2c-0.1,0-0.1,0.1-0.2,0c-0.1,0-0.1,0-0.2-0.1c0,0-0.1-0.1-0.1-0.2
			c-0.1-0.1-0.1-0.3-0.2-0.3c-0.1-0.1-0.2-0.1-0.3-0.2c-0.2,0-0.4,0-0.6,0.2c-0.2,0.2-0.3,0.4-0.3,0.7c0,0.2,0,0.4,0,0.5
			c0,0.1,0.1,0.3,0.2,0.4c0.1,0.1,0.2,0.1,0.4,0.2c0.2,0,0.3,0,0.4-0.1c0.1-0.1,0.2-0.2,0.3-0.3c0-0.1,0.1-0.1,0.1-0.2
			c0,0,0.1-0.1,0.2,0c0.1,0,0.1,0,0.2,0.1C442.9,66.6,442.9,66.6,442.9,66.7z"/>
	</g>
	<g class="st0">
		<path class="st5" d="M444.7,64.9c0.3,0,0.5,0.1,0.7,0.2s0.3,0.3,0.4,0.5c0.1,0.2,0.1,0.5,0.1,0.8c0,0.2,0,0.4-0.1,0.6
			c-0.1,0.2-0.2,0.3-0.3,0.4c-0.1,0.1-0.3,0.2-0.4,0.3c-0.2,0.1-0.4,0.1-0.6,0.1c-0.2,0-0.4,0-0.6-0.1c-0.2-0.1-0.3-0.2-0.4-0.3
			c-0.1-0.1-0.2-0.3-0.2-0.5c-0.1-0.2-0.1-0.4-0.1-0.6c0-0.2,0-0.4,0.1-0.6c0.1-0.2,0.2-0.3,0.3-0.4c0.1-0.1,0.3-0.2,0.4-0.3
			C444.3,64.9,444.5,64.9,444.7,64.9z M445.5,66.3c0-0.2,0-0.4-0.1-0.5c-0.1-0.1-0.1-0.3-0.3-0.3s-0.3-0.1-0.4-0.1
			c-0.1,0-0.2,0-0.3,0.1c-0.1,0-0.2,0.1-0.2,0.2c-0.1,0.1-0.1,0.2-0.2,0.3c0,0.1-0.1,0.3-0.1,0.4c0,0.2,0,0.3,0,0.4
			c0,0.1,0.1,0.2,0.2,0.3c0.1,0.1,0.1,0.2,0.2,0.2c0.1,0,0.2,0.1,0.3,0.1c0.1,0,0.3,0,0.4-0.1c0.1-0.1,0.2-0.2,0.3-0.3
			C445.4,66.7,445.5,66.5,445.5,66.3z"/>
	</g>
	<g class="st0">
		<path class="st5" d="M447.5,67.2l-0.6-1.7l0.1,1.9c0,0.1,0,0.2-0.1,0.2c0,0.1-0.1,0.1-0.2,0.1c-0.1,0-0.1,0-0.2-0.1
			c-0.1,0-0.1-0.1-0.1-0.2l-0.2-2.2c0-0.1,0-0.2,0.1-0.2c0.1,0,0.1-0.1,0.2-0.1l0.2,0c0.1,0,0.2,0,0.2,0c0,0,0.1,0,0.1,0.1
			c0,0,0.1,0.1,0.1,0.2l0.5,1.5l0.3-1.5c0-0.1,0-0.2,0.1-0.2c0-0.1,0.1-0.1,0.1-0.1c0,0,0.1,0,0.2,0l0.2,0c0.1,0,0.2,0,0.3,0
			c0.1,0,0.1,0.1,0.1,0.2l0.2,2.2c0,0.1,0,0.2-0.1,0.2s-0.1,0.1-0.2,0.1c-0.1,0-0.1,0-0.2-0.1c-0.1,0-0.1-0.1-0.1-0.2l-0.1-1.9
			l-0.3,1.8c0,0.1,0,0.2-0.1,0.3s0,0.1-0.1,0.2c0,0-0.1,0.1-0.2,0.1c-0.1,0-0.1,0-0.2,0c0,0-0.1-0.1-0.1-0.1c0,0-0.1-0.1-0.1-0.1
			S447.5,67.3,447.5,67.2z"/>
	</g>
	<g class="st0">
		<path class="st5" d="M450.8,66.8l-0.8-1.6l0.4,1.9c0,0.1,0,0.2,0,0.2c0,0.1-0.1,0.1-0.2,0.1c-0.1,0-0.1,0-0.2,0
			c-0.1,0-0.1-0.1-0.1-0.2l-0.4-2.1c0-0.1,0-0.2,0-0.3c0.1-0.1,0.1-0.1,0.2-0.1l0.2,0c0.1,0,0.2,0,0.2,0c0,0,0.1,0,0.1,0.1
			c0,0,0.1,0.1,0.1,0.2l0.7,1.4l0.1-1.6c0-0.1,0-0.2,0-0.2c0-0.1,0-0.1,0.1-0.1c0,0,0.1,0,0.2-0.1l0.2,0c0.1,0,0.2,0,0.3,0
			c0.1,0,0.1,0.1,0.1,0.2l0.4,2.1c0,0.1,0,0.2,0,0.2c0,0.1-0.1,0.1-0.2,0.1c-0.1,0-0.1,0-0.2,0c-0.1,0-0.1-0.1-0.1-0.2l-0.4-1.9
			l-0.1,1.8c0,0.1,0,0.2,0,0.3c0,0.1,0,0.1-0.1,0.2c0,0.1-0.1,0.1-0.2,0.1c-0.1,0-0.1,0-0.2,0c0,0-0.1,0-0.1-0.1
			c0,0-0.1-0.1-0.1-0.1S450.8,66.9,450.8,66.8z"/>
	</g>
	<g class="st0">
		<path class="st5" d="M453.5,63.7c0.3-0.1,0.5-0.1,0.8-0.1c0.2,0,0.4,0.2,0.6,0.3c0.2,0.2,0.3,0.4,0.4,0.7c0.1,0.2,0.1,0.4,0.1,0.6
			c0,0.2,0,0.4-0.1,0.5c-0.1,0.2-0.2,0.3-0.3,0.4c-0.1,0.1-0.3,0.2-0.5,0.3c-0.2,0.1-0.4,0.1-0.6,0.1c-0.2,0-0.3-0.1-0.5-0.2
			c-0.1-0.1-0.3-0.2-0.4-0.4c-0.1-0.2-0.2-0.3-0.3-0.5c-0.1-0.2-0.1-0.4-0.1-0.6c0-0.2,0-0.4,0.1-0.5s0.2-0.3,0.3-0.4
			C453.2,63.9,453.3,63.8,453.5,63.7z M454.7,64.8c-0.1-0.2-0.1-0.3-0.2-0.5c-0.1-0.1-0.2-0.2-0.4-0.2c-0.1,0-0.3,0-0.4,0
			c-0.1,0-0.2,0.1-0.3,0.2s-0.1,0.2-0.2,0.2c0,0.1-0.1,0.2-0.1,0.3c0,0.1,0,0.3,0.1,0.4s0.1,0.3,0.2,0.4c0.1,0.1,0.2,0.2,0.3,0.2
			c0.1,0.1,0.2,0.1,0.3,0.1c0.1,0,0.2,0,0.3,0c0.1,0,0.2-0.1,0.3-0.2c0.1-0.1,0.1-0.2,0.2-0.4C454.8,65.2,454.8,65,454.7,64.8z"/>
	</g>
	<g class="st0">
		<path class="st5" d="M456,63.2l1.6,1l-0.7-1.5c0-0.1-0.1-0.2,0-0.2s0.1-0.1,0.1-0.1c0.1,0,0.1,0,0.2,0c0.1,0,0.1,0.1,0.2,0.2
			l0.9,2c0.1,0.2,0.1,0.4-0.1,0.5c0,0-0.1,0-0.1,0c0,0-0.1,0-0.1,0c0,0-0.1,0-0.1-0.1c0,0-0.1-0.1-0.1-0.1l-1.6-1l0.7,1.5
			c0,0.1,0.1,0.2,0,0.2c0,0.1-0.1,0.1-0.1,0.1c-0.1,0-0.1,0-0.2,0c-0.1,0-0.1-0.1-0.2-0.2l-0.9-1.9c0-0.1-0.1-0.2-0.1-0.2
			c0-0.1,0-0.1,0.1-0.2s0.1-0.1,0.1-0.1c0,0,0.1,0,0.1,0c0,0,0.1,0,0.1,0c0,0,0.1,0,0.1,0.1C455.9,63.1,455.9,63.1,456,63.2z"/>
	</g>
	<g class="st0">
		<path class="st5" d="M460.1,61.1l-0.9,0.6l0.4,0.6l0.8-0.5c0.1,0,0.1-0.1,0.2,0c0.1,0,0.1,0,0.1,0.1c0,0.1,0,0.1,0,0.2
			c0,0.1-0.1,0.1-0.1,0.1l-0.8,0.5l0.5,0.8c0.1,0.1,0.1,0.2,0.1,0.3c0,0.1-0.1,0.1-0.1,0.2c-0.1,0-0.1,0.1-0.2,0
			c-0.1,0-0.1-0.1-0.2-0.2l-1.1-1.8c0-0.1-0.1-0.1-0.1-0.2c0-0.1,0-0.1,0-0.2c0,0,0.1-0.1,0.1-0.1l1.1-0.7c0.1,0,0.1-0.1,0.2-0.1
			c0.1,0,0.1,0,0.1,0.1s0,0.1,0,0.2C460.2,61,460.2,61.1,460.1,61.1z"/>
	</g>
	<g class="st0">
		<path class="st5" d="M461.4,61.7l-0.8-1.1c-0.1-0.1-0.1-0.2-0.1-0.2s0-0.1,0.1-0.2c0.1-0.1,0.1-0.1,0.2-0.1s0.1,0.1,0.2,0.2
			l0.8,1.1c0.1,0.1,0.2,0.2,0.3,0.3c0.1,0.1,0.2,0.1,0.3,0.1c0.1,0,0.2-0.1,0.3-0.2c0.2-0.1,0.3-0.3,0.3-0.4c0-0.1-0.1-0.3-0.2-0.5
			l-0.8-1.1c-0.1-0.1-0.1-0.2-0.1-0.2c0-0.1,0-0.1,0.1-0.2s0.1-0.1,0.2-0.1c0.1,0,0.1,0.1,0.2,0.2l0.8,1.1c0.1,0.2,0.2,0.3,0.3,0.5
			s0.1,0.3,0,0.4c0,0.1-0.1,0.3-0.2,0.4c-0.1,0.1-0.2,0.2-0.3,0.3c-0.2,0.1-0.3,0.2-0.5,0.3c-0.1,0.1-0.3,0.1-0.4,0.1
			c-0.1,0-0.3-0.1-0.4-0.2S461.5,61.9,461.4,61.7z"/>
	</g>
	<g class="st0">
		<path class="st5" d="M464.2,57.9l-0.4,0.4l1.3,1.5c0.1,0.1,0.1,0.2,0.1,0.2c0,0.1,0,0.1-0.1,0.2c-0.1,0.1-0.1,0.1-0.2,0.1
			c-0.1,0-0.2-0.1-0.2-0.1l-1.3-1.5l-0.4,0.4c-0.1,0.1-0.1,0.1-0.2,0.1c-0.1,0-0.1,0-0.2-0.1c0-0.1-0.1-0.1-0.1-0.2s0-0.1,0.1-0.2
			l1.3-1.2c0.1-0.1,0.1-0.1,0.2-0.1c0.1,0,0.1,0,0.2,0.1c0,0.1,0.1,0.1,0.1,0.2C464.3,57.8,464.3,57.8,464.2,57.9z"/>
	</g>
	<g class="st0">
		<path class="st5" d="M465.5,58.3l-1-0.9c-0.1-0.1-0.1-0.2-0.1-0.2c0-0.1,0-0.1,0.1-0.2c0.1-0.1,0.1-0.1,0.2-0.1
			c0.1,0,0.2,0,0.2,0.1l1,0.9c0.1,0.1,0.2,0.2,0.3,0.2c0.1,0,0.2,0.1,0.3,0c0.1,0,0.2-0.1,0.3-0.2c0.1-0.2,0.2-0.3,0.2-0.5
			c0-0.1-0.1-0.3-0.3-0.5l-1-0.9c-0.1-0.1-0.1-0.2-0.1-0.2s0-0.1,0.1-0.2c0.1-0.1,0.1-0.1,0.2-0.1c0.1,0,0.2,0,0.2,0.1l1,0.9
			c0.2,0.1,0.3,0.3,0.4,0.4c0.1,0.1,0.1,0.3,0.1,0.4c0,0.1,0,0.3-0.1,0.4c-0.1,0.1-0.1,0.3-0.3,0.4c-0.1,0.2-0.3,0.3-0.4,0.4
			c-0.1,0.1-0.3,0.1-0.4,0.1c-0.1,0-0.3,0-0.4-0.1S465.6,58.4,465.5,58.3z"/>
	</g>
	<g class="st0">
		<path class="st5" d="M467.8,55.5l-0.1,0.2l0.7,0.5c0.1,0.1,0.1,0.1,0.2,0.2c0,0.1,0,0.1-0.1,0.2c-0.1,0.1-0.1,0.1-0.2,0.1
			c-0.1,0-0.2,0-0.2-0.1l-1.7-1.3c-0.1-0.1-0.1-0.1-0.2-0.2s0-0.2,0.1-0.3l0.5-0.7c0.1-0.1,0.1-0.2,0.2-0.2c0.1-0.1,0.1-0.1,0.2-0.2
			c0.1,0,0.2-0.1,0.3-0.1c0.1,0,0.2,0,0.3,0c0.1,0,0.2,0.1,0.3,0.1c0.2,0.1,0.3,0.3,0.3,0.4c0,0.2,0,0.4-0.1,0.6
			c0.1,0,0.2-0.1,0.4-0.1c0.1,0,0.3,0,0.4,0c0.1,0,0.2,0,0.3,0.1c0.1,0,0.2,0,0.2,0.1c0,0,0.1,0.1,0.1,0.1c0,0,0,0.1,0,0.1
			c0,0,0,0.1-0.1,0.1c0,0.1-0.1,0.1-0.1,0.1s-0.1,0-0.2,0c-0.1,0-0.1,0-0.2,0l-0.4,0c-0.2,0-0.3,0-0.4,0c-0.1,0-0.2,0-0.2,0.1
			C467.9,55.4,467.9,55.4,467.8,55.5z M467.1,54.5l-0.3,0.4l0.6,0.4l0.3-0.4c0.1-0.1,0.1-0.2,0.2-0.3c0-0.1,0-0.2,0-0.2
			c0-0.1-0.1-0.1-0.1-0.2c-0.1,0-0.1-0.1-0.2-0.1c-0.1,0-0.1,0-0.2,0.1C467.3,54.3,467.2,54.4,467.1,54.5z"/>
	</g>
	<g class="st0">
		<path class="st5" d="M469,51.7l-0.6,1.1l0.6,0.3l0.6-1c0-0.1,0.1-0.1,0.1-0.1c0.1,0,0.1,0,0.2,0s0.1,0.1,0.1,0.1
			c0,0.1,0,0.1,0,0.2l-0.6,1l0.7,0.4l0.7-1.1c0-0.1,0.1-0.1,0.2-0.1c0.1,0,0.1,0,0.2,0c0.1,0,0.1,0.1,0.1,0.1c0,0.1,0,0.1,0,0.2
			l-0.8,1.3c-0.1,0.1-0.1,0.2-0.2,0.2c-0.1,0-0.2,0-0.3-0.1l-1.8-1.1c-0.1,0-0.1-0.1-0.1-0.1c0,0,0-0.1,0-0.2c0-0.1,0-0.1,0.1-0.2
			l0.8-1.3c0-0.1,0.1-0.1,0.2-0.1c0.1,0,0.1,0,0.2,0c0.1,0,0.1,0.1,0.1,0.1C469,51.6,469,51.6,469,51.7z"/>
	</g>
	<circle id="XMLID_14_" class="st5" cx="471.2" cy="48.6" r="1.3"/>
	<g id="XMLID_3_">
		<path id="XMLID_13_" class="st3" d="M442.9,28.4c-0.9,0-1.6,0-2.4,0c-0.1,0-0.3-0.3-0.4-0.5c-0.8-1.6-1.9-2.8-3.8-2.9
			c-2.1-0.2-5.2,1.9-4.1,4.8c0.4,1,1.1,1.9,2,2.4c1.5,0.9,3,1.7,4.5,2.6c1.8,1.1,3.3,2.5,3.8,4.7c0.6,3-1,6-3.9,7.1
			c-0.8,0.3-1.7,0.6-2.7,0.5c0.3-0.9,0.7-1.8,1-2.7c0-0.1,0.2-0.2,0.3-0.3c0.2-0.1,0.3-0.2,0.5-0.2c2.9-1.3,2.3-5,0.4-6.2
			c-1.7-1.1-3.4-2.1-5.2-3.2c-1.7-1-3.1-2.3-3.6-4.3c-0.8-2.9,0.7-6.1,3.4-7.2c2.2-0.9,4.4-1.1,6.6,0.1c1.9,1,3.1,2.6,3.6,4.7
			c0,0.1,0,0.2,0,0.3C442.9,28.1,442.9,28.2,442.9,28.4z"/>
		<path id="XMLID_12_" class="st3" d="M462.9,28c-0.9,0-1.7,0-2.4,0c-0.1,0-0.2-0.2-0.3-0.3c-0.1-0.1-0.1-0.3-0.1-0.5
			c-0.6-2.3-3.2-3.2-5-1.8c-0.8,0.6-1.1,1.4-1.1,2.4c0,5.9,0,11.7,0,17.6c0,0.2,0,0.3,0,0.5c-0.1,0.4-0.2,0.5-0.6,0.2
			c-1.4-1.2-2.2-2.6-2.3-4.4c0-4.7-0.1-9.4,0-14.1c0.1-2.9,2.1-5.4,5.5-5.5c3.2-0.1,5.5,1.7,6.3,5C462.9,27.4,462.8,27.6,462.9,28z"
			/>
		<path id="XMLID_11_" class="st3" d="M440.7,33.3c-0.2,0.6-0.5,1.2-0.8,1.9c-0.7-0.4-1.5-0.9-2.3-1.3c0.5-1.4,1-2.7,1.5-4
			c0.1-0.2,0.4-0.4,0.6-0.4c0.7-0.1,1.4,0,2.1,0c0.2,0,0.4,0.2,0.5,0.4c2,5.2,4,10.4,6,15.6c1,2.6,2,5.3,3,8.1c-0.9,0-1.8,0-2.6,0
			c-0.1,0-0.2-0.2-0.3-0.4c-0.7-1.8-1.4-3.6-2.1-5.4c-0.7-1.7-1.4-3.5-2-5.2c-0.2-0.5-0.5-0.7-1-0.7c-0.2,0-0.3,0-0.6,0
			c0.1-0.7-0.1-1.6-0.1-2.2c0.2-0.1,0.4-0.2,0.5-0.3c-0.8-2-1.6-4-2.3-6.1C440.9,33.3,440.8,33.3,440.7,33.3z"/>
		<path id="XMLID_10_" class="st3" d="M454.5,27.8c0.4,0.5,0.9,0.8,1.1,1.3c0.7,1.1,0.9,2.3,0.9,3.5c0,3.9-0.1,7.8,0,11.7
			c0,1.6-0.2,3-1.1,4.2c-0.9,1.3-2.1,2.1-3.6,2.4c-0.5,0.1-0.8,0.1-1-0.5c-0.2-0.6-0.4-1.1-0.6-1.6c0.7-0.2,1.4-0.3,2-0.6
			c1.4-0.7,2.2-1.8,2.2-3.5c-0.1-3.8,0-7.6,0-11.4c0-1.7,0-3.5,0-5.2C454.4,28.1,454.4,28,454.5,27.8z"/>
		<path id="XMLID_9_" class="st3" d="M436.6,37c0.6,0.5,1.2,0.8,1.6,1.2c0.2,0.2,0.5,0.5,0.3,0.9c-0.1,0.3,0,0.5,0.3,0.5
			c0.4,0,0.6,0.3,0.6,0.6c0,0.4,0,0.8-0.1,1.2c0,0.1,0,0.2-0.1,0.3c0,0-0.3,0-0.4,0c-1.4,0.1-1.3,0.1-1.8,1.3
			c-1.2,3.3-2.5,6.5-3.8,9.8c-0.2,0.6-0.5,0.8-1.1,0.7c-0.6-0.1-1.1,0-1.8,0C432.4,48,434.5,42.6,436.6,37z"/>
		<path id="XMLID_8_" class="st3" d="M446.6,39.4c-0.3-0.9-0.7-1.7-1-2.6c-0.5-1.3-1.1-2.7-1.6-4c0-0.1-0.1-0.2-0.1-0.3
			c0-2,0-4,0-6.1c2.3,0,4.5,0,6.8,0c0,0.7,0,1.5,0,2.2c0,0.4-0.3,0.4-0.5,0.4c-1.1,0-2.2,0-3.4,0c0,3.5,0,6.9,0,10.3
			C446.7,39.4,446.7,39.4,446.6,39.4z"/>
		<path id="XMLID_7_" class="st3" d="M456.7,47.3c0.1-0.9,0.2-1.7,0.3-2.5c0-0.1,0.2-0.3,0.4-0.4c1.5-0.4,2.3-1.4,2.8-2.8
			c0.1-0.3,0.2-0.4,0.6-0.4c0.5,0,1.1,0,1.6,0c0.7,0,0.7,0.1,0.6,0.8c-0.5,2.9-2.1,4.6-5,5.1C457.6,47.2,457.2,47.2,456.7,47.3z"/>
		<path id="XMLID_6_" class="st3" d="M447.4,51.1c-1.2,0-2.4,0-3.5,0c0-3,0-5.9,0-8.8c0.1,0,0.1,0,0.2-0.1
			C445.2,45.2,446.3,48.1,447.4,51.1z"/>
		<path id="XMLID_5_" class="st3" d="M432.6,46.5c-2-1.4-3.7-2.8-3.7-5.4c1,0,1.9,0,2.8,0c0.2,1,0.7,1.8,1.5,2.4
			c0.3,0.2,0.4,0.4,0.3,0.8C433.1,45,432.9,45.7,432.6,46.5z"/>
	</g>
</g>
</svg>
