<svg id="Capa_1" enable-background="new 0 0 504.5 504.5" height="512" viewBox="0 0 504.5 504.5" width="512" xmlns="http://www.w3.org/2000/svg"><g><g fill="#3d5168"><path d="m441.417 44.5h-15v-29.5h-45.667v29.5h-15v-37c0-4.142 3.357-7.5 7.5-7.5h60.667c4.143 0 7.5 3.358 7.5 7.5z"/><path d="m441.417 220.167h-15v-29.5h-45.667v29.5h-15v-37c0-4.142 3.357-7.5 7.5-7.5h60.667c4.143 0 7.5 3.358 7.5 7.5z"/><path d="m441.417 395.833h-15v-29.5h-45.667v29.5h-15v-37c0-4.142 3.357-7.5 7.5-7.5h60.667c4.143 0 7.5 3.358 7.5 7.5z"/></g><path d="m153.75 157.5h-30l30 152.511c0 8.28 6.71 14.5 15 14.5 8.28 0 15-6.22 15-14.5v-122.511c0-16.5-13.5-30-30-30z" fill="#1b74d6"/><path d="m48.083 157.5h30l-30 152.011c0 8.28-6.72 15-15 15s-15-6.72-15-15v-122.011c0-16.5 13.5-30 30-30z" fill="#54a5ff"/><path d="m153.75 187.5c0-16.5-13.5-30-30-30h-45.667c-16.5 0-30 13.5-30 30v268.084c0 10.447 8.469 18.916 18.917 18.916 10.447 0 18.917-8.469 18.917-18.916v-146.073h30v146.073c0 10.447 8.469 18.916 18.916 18.916s18.916-8.469 18.916-18.916z" fill="#1e8aff"/><path d="m100.588 37.5v90c24.853 0 45-20.147 45-45s-20.148-45-45-45z" fill="#1b74d6"/><path d="m115.588 82.5c0-24.853-6.716-45-15-45-24.853 0-45 20.147-45 45s20.147 45 45 45c8.284 0 15-20.147 15-45z" fill="#1e8aff"/><path d="m275.747 416.667h-30v30h30c8.284 0 15-6.716 15-15s-6.716-15-15-15z" fill="#c0c8d2"/><path d="m275.747 241h-30v30h30c8.284 0 15-6.716 15-15s-6.716-15-15-15z" fill="#c0c8d2"/><path d="m275.747 65.333h-30v30h30c8.284 0 15-6.716 15-15s-6.716-15-15-15z" fill="#c0c8d2"/><path d="m245.747 271c8.284 0 15-6.716 15-15s-6.716-15-15-15h-1.997v-145.667h1.997c8.284 0 15-6.716 15-15s-6.716-15-15-15h-16.997c-8.284 0-15 6.716-15 15v351.333c0 8.284 6.716 15 15 15h16.997c8.284 0 15-6.716 15-15s-6.716-15-15-15h-1.997v-145.666z" fill="#dae0e7"/><path d="m411.417 80.083 45 73.083h22.5c4.142 0 7.5-3.358 7.5-7.5l-.001-22.5z" fill="#3d5168"/><path d="m320.75 123.167-.002 22.499c0 4.142 3.358 7.501 7.5 7.501h128.169v-75z" fill="#57697d"/><path d="m486.417 44.5v78.667h-30l-45-43.083 45-43.083h22.5c4.142-.001 7.5 3.357 7.5 7.499z" fill="#57697d"/><path d="m456.417 37v86.167h-135.67v-78.667c0-4.142 3.358-7.5 7.5-7.5z" fill="#728192"/><path d="m411.417 255.75 45 73.083h22.5c4.142 0 7.5-3.358 7.5-7.5l-.001-22.5z" fill="#3d5168"/><path d="m320.75 298.833-.002 22.499c0 4.142 3.358 7.501 7.5 7.501h128.169v-75z" fill="#57697d"/><path d="m486.417 220.167v78.667h-30l-45-43.083 45-43.083h22.5c4.142-.001 7.5 3.357 7.5 7.499z" fill="#57697d"/><path d="m456.417 212.667v86.167h-135.67v-78.667c0-4.142 3.358-7.5 7.5-7.5z" fill="#728192"/><path d="m411.417 431.417 45 73.083h22.5c4.142 0 7.5-3.358 7.5-7.5l-.001-22.5z" fill="#3d5168"/><path d="m320.75 474.5-.002 22.499c0 4.142 3.358 7.501 7.5 7.501h128.169v-75z" fill="#57697d"/><path d="m486.417 395.833v78.667h-30l-45-43.083 45-43.083h22.5c4.142-.001 7.5 3.357 7.5 7.499z" fill="#57697d"/><path d="m456.417 388.333v86.167h-135.67v-78.667c0-4.142 3.358-7.5 7.5-7.5z" fill="#728192"/></g></svg>